<svg xmlns="http://www.w3.org/2000/svg" viewBox="0 0 15.5 15.5"><defs><style>.cls-1{fill:none;}</style></defs><title>bu0013</title><g id="레이어_2" data-name="레이어 2"><g id="Layer_1" data-name="Layer 1"><g id="레이어_2-2" data-name="레이어 2"><rect class="cls-1" width="15.5" height="15.5"/><g id="Layer_1-2" data-name="Layer 1"><path d="M15.25,10.22a11,11,0,0,0-2-1.29h0V7.53A.63.63,0,0,0,13.59,7V5.56a1.27,1.27,0,0,0-1.27-1.27H12a1.27,1.27,0,0,0-1.25,1.27V7a.63.63,0,0,0,.27.57V8.89h0l.82.61a1.38,1.38,0,0,1,.5,1.06v1.13H15.5v-1A.68.68,0,0,0,15.25,10.22ZM9.06,8.43h0V6.78a.75.75,0,0,0,.34-.61V4.49A1.5,1.5,0,0,0,7.93,3H7.57a1.5,1.5,0,0,0-1.47,1.5V6.14a.75.75,0,0,0,.34.61V8.36h0A12.8,12.8,0,0,0,4.17,9.88a.79.79,0,0,0-.29.61v1.13h7.86V10.49a.79.79,0,0,0-.41-.54A13,13,0,0,0,9.06,8.43Zm-4.53.43V7.53A.63.63,0,0,0,4.8,7V5.56A1.27,1.27,0,0,0,3.53,4.29H3.24A1.27,1.27,0,0,0,2,5.56V7a.63.63,0,0,0,.27.57V8.89h0a10.81,10.81,0,0,0-2,1.29.68.68,0,0,0-.29.57v1H3.19V10.58a1.38,1.38,0,0,1,.5-1.06l.84-.63Z"/></g></g></g></g></svg>