<svg xmlns="http://www.w3.org/2000/svg" viewBox="0 0 15.02 15.02"><title>bu0012</title><g id="레이어_2" data-name="레이어 2"><g id="Layer_1" data-name="Layer 1"><path d="M12.82,2.2A7.51,7.51,0,0,0,.45,10.06.31.31,0,1,0,1,9.85a6.9,6.9,0,1,1,11.49,2.41l0,0-.08.08a6.91,6.91,0,0,1-9.76,0l0,0s0-.06,0-.08,0-.12,0-.18V12s0-.08,0-.12v-.44l0-.1,0-.08,0-.1,0-.08,0-.1,0-.08,0-.09,0-.08,0-.09,0-.08,0-.09,0-.08,0-.09,0-.07,0-.09,0-.07,0-.09,0-.07,0-.08,0-.07,0-.08,0-.07.05-.08,0-.07.05-.08,0-.06.06-.08,0-.06.06-.08.05-.06L3.82,9l.05-.06.07-.07L4,8.81l.07-.07.06-.05.07-.07.06-.05.08-.07.06,0,.08-.07.06,0,.09-.06.06,0,.1-.07,0,0L5,8.06H5L5.13,8l.05,0,.11-.06.07,0,.09,0a3,3,0,0,0,4.12,0A5,5,0,0,1,12,10.29a.31.31,0,1,0,.56-.25A5.51,5.51,0,0,0,10,7.31,3,3,0,0,0,7.51,2.65a.31.31,0,0,0,0,.61,2.37,2.37,0,0,1,1.76,4h0a2.36,2.36,0,0,1-3.52,0h0a2.37,2.37,0,0,1,.09-3.28.31.31,0,0,0-.43-.43A3,3,0,0,0,5,7.31H5L5,7.35l-.11.06-.08,0-.1.06-.08,0-.09.06-.08,0-.09.06-.07.05-.09.06-.07.06L4,8,4,8l-.08.07-.07.06-.08.07-.07.06-.08.07-.06.06-.07.08-.06.07-.07.08-.06.07-.07.09-.05.07L3.07,9,3,9l-.09.13,0,0-.11.16,0,.06-.07.11,0,.07-.06.1,0,.08,0,.1,0,.08,0,.1,0,.08,0,.1,0,.08,0,.1,0,.09,0,.1,0,.09,0,.1,0,.09,0,.11,0,.09,0,.11,0,.09,0,.11v.09l0,.11v.29s0,.09,0,.14v.07c0,.07,0,.14,0,.2s0,.14,0,.22a.3.3,0,0,0,0,.05H2l0,0H2l0,0H2l0,0h0l0,0,.09.1a7.52,7.52,0,0,0,10.62,0l.09-.1,0,0A7.52,7.52,0,0,0,12.82,2.2Z"/></g></g></svg>