<svg xmlns="http://www.w3.org/2000/svg" viewBox="0 0 14.99 15"><defs><style>.cls-1{fill:#7a7a7a;}</style></defs><title>bu0005</title><g id="레이어_2" data-name="레이어 2"><g id="Layer_1" data-name="Layer 1"><path class="cls-1" d="M14.66,6.8a1.15,1.15,0,0,0,.27-1.15,1.08,1.08,0,0,0-.87-.76l-3.63-.55a.48.48,0,0,1-.36-.27L8.46.63a1.06,1.06,0,0,0-1.93,0L4.91,4.06a.48.48,0,0,1-.36.27L.92,4.88a1.08,1.08,0,0,0-.87.76A1.15,1.15,0,0,0,.33,6.8L3,9.47a.51.51,0,0,1,.14.44l-.62,3.78a1.14,1.14,0,0,0,.43,1.1A1,1,0,0,0,4,14.87l3.25-1.78a.46.46,0,0,1,.44,0L11,14.87a1,1,0,0,0,1.13-.09,1.14,1.14,0,0,0,.43-1.1L11.9,9.91A.51.51,0,0,1,12,9.47ZM11.31,10l.62,3.78a.5.5,0,0,1-.19.48.45.45,0,0,1-.5,0L8,12.53a1,1,0,0,0-1,0L3.75,14.31a.45.45,0,0,1-.5,0,.5.5,0,0,1-.19-.48L3.68,10a1.15,1.15,0,0,0-.31-1L.74,6.35a.5.5,0,0,1-.12-.51A.47.47,0,0,1,1,5.5L4.64,5a1.08,1.08,0,0,0,.81-.61L7.07.9a.47.47,0,0,1,.85,0L9.54,4.34a1.08,1.08,0,0,0,.81.61L14,5.5a.47.47,0,0,1,.38.34.5.5,0,0,1-.12.51L11.62,9A1.15,1.15,0,0,0,11.31,10Z"/></g></g></svg>