<svg xmlns="http://www.w3.org/2000/svg" viewBox="0 0 13 13"><defs><style>.cls-1{fill:#76a2af;}</style></defs><title>bu0010</title><g id="레이어_2" data-name="레이어 2"><g id="Layer_1" data-name="Layer 1"><path class="cls-1" d="M6.5.5a6,6,0,1,1-6,6,6,6,0,0,1,6-6m0-.5A6.5,6.5,0,1,0,13,6.5,6.5,6.5,0,0,0,6.5,0Z"/><path d="M5,6.75a.25.25,0,0,1-.18-.43l3-3a.25.25,0,0,1,.35.35l-3,3A.25.25,0,0,1,5,6.75Z"/><path d="M8,9.75a.25.25,0,0,1-.18-.07l-3-3a.25.25,0,0,1,.35-.35l3,3A.25.25,0,0,1,8,9.75Z"/></g></g></svg>