<svg xmlns="http://www.w3.org/2000/svg" viewBox="0 0 30.11 30.11"><defs><style>.cls-1{fill:#6acccd;}.cls-2{fill:none;}</style></defs><title>bu0003</title><g id="레이어_2" data-name="레이어 2"><g id="Layer_1" data-name="Layer 1"><path d="M1.88,16.24a1.56,1.56,0,0,1,1,.33l2.78-2.68a2,2,0,0,1-.24-1A1.76,1.76,0,0,1,7,11.09a1.76,1.76,0,0,1,1.67,1.84,2,2,0,0,1-.16.78l1.57,1.76a1.54,1.54,0,0,1,.74-.19,1.57,1.57,0,0,1,1,.36l3.56-4.54a1.92,1.92,0,0,1-.55-1.36,1.76,1.76,0,0,1,1.67-1.84A1.76,1.76,0,0,1,18.2,9.75a1.76,1.76,0,0,1-1.67,1.84,1.53,1.53,0,0,1-.65-.14l-3.65,4.65a2,2,0,0,1,.29,1A1.76,1.76,0,0,1,10.85,19a1.76,1.76,0,0,1-1.67-1.84,1.93,1.93,0,0,1,.48-1.28L8.22,14.23A1.6,1.6,0,0,1,7,14.77,1.58,1.58,0,0,1,6,14.35L3.23,17a2,2,0,0,1,.32,1.08,1.76,1.76,0,0,1-1.67,1.84,1.84,1.84,0,0,1,0-3.67ZM17.64,9.75a1.11,1.11,0,1,0-2.22,0,1.11,1.11,0,1,0,2.22,0Zm-6.79,8.6a1.23,1.23,0,0,0,0-2.45,1.23,1.23,0,0,0,0,2.45ZM7,14.15a1.23,1.23,0,0,0,0-2.45,1.23,1.23,0,0,0,0,2.45ZM1.88,19.3a1.23,1.23,0,0,0,0-2.45,1.23,1.23,0,0,0,0,2.45Z"/><path class="cls-1" d="M16.21,16.49l1.63,4.06,1.63-4.06h.85v5h-.66V19.53l.06-2.09-1.63,4h-.5l-1.63-4L16,19.53v1.94h-.66v-5Z"/><path class="cls-1" d="M24.22,20.17H22.13l-.47,1.3H21l1.9-5h.57l1.9,5h-.67Zm-1.89-.54H24l-.85-2.33Z"/><path class="cls-1" d="M26.69,19.52v1.95H26v-5h1.84a1.85,1.85,0,0,1,1.28.42,1.41,1.41,0,0,1,.46,1.1,1.39,1.39,0,0,1-.45,1.12,1.93,1.93,0,0,1-1.3.39Zm0-.54h1.18a1.18,1.18,0,0,0,.81-.25A.91.91,0,0,0,29,18a.94.94,0,0,0-.28-.71,1.11,1.11,0,0,0-.77-.28H26.69Z"/><rect class="cls-2" width="30.11" height="30.11"/></g></g></svg>