<svg xmlns="http://www.w3.org/2000/svg" viewBox="0 0 27.73 22.99"><defs><style>.cls-1{fill:#00526b;}</style></defs><title>bu0001</title><g id="레이어_2" data-name="레이어 2"><g id="Layer_1" data-name="Layer 1"><path class="cls-1" d="M5.46,3H19.54a.49.49,0,0,0,.47-.5.49.49,0,0,0-.47-.5H5.46a.49.49,0,0,0-.47.5A.49.49,0,0,0,5.46,3ZM19.52,9H5.7a.47.47,0,0,0,0,.95H19.52a.47.47,0,0,0,0-.95Zm.05,7H5.43a.51.51,0,0,0,0,1H19.57a.51.51,0,0,0,0-1ZM1.8,0,1.25,1.16,0,1.35l.9.91L.69,3.54l1.11-.6,1.11.6L2.7,2.26l.9-.91L2.36,1.16Zm0,7.14L1.25,8.3,0,8.49l.9.91L.69,10.67l1.11-.6,1.11.6L2.7,9.4l.9-.91L2.36,8.3Zm.56,8.47L1.8,14.45l-.56,1.16L0,15.8l.9.91L.69,18l1.11-.6,1.11.6L2.7,16.7l.9-.91Z"/><path class="cls-1" d="M12.75,19.82V23h3.16l9.16-9.25-3.16-3.17Zm14.74-8.5a.81.81,0,0,0,0-1.17L25.57,8.24a.8.8,0,0,0-1.17,0l-1.5,1.5,3.16,3.17Z"/></g></g></svg>