<svg xmlns="http://www.w3.org/2000/svg" viewBox="0 0 13 13"><defs><style>.cls-1{fill:#7cb1b2;}</style></defs><title>bu0008</title><g id="레이어_2" data-name="레이어 2"><g id="Layer_1" data-name="Layer 1"><path class="cls-1" d="M9.71,1.79a1.5,1.5,0,1,0,1.49,1.5A1.5,1.5,0,0,0,9.71,1.79Zm0,2.4a.9.9,0,1,1,.9-.9A.9.9,0,0,1,9.71,4.19ZM11.51,0h-4a1.42,1.42,0,0,0-1,.44l-6,6a1.5,1.5,0,0,0,0,2.12l4,4a1.51,1.51,0,0,0,2.12,0l6-6a1.44,1.44,0,0,0,.45-1v-4A1.5,1.5,0,0,0,11.51,0Zm.9,5.5a.78.78,0,0,1-.27.6l-6,6a.9.9,0,0,1-1.25,0l-4-4a.92.92,0,0,1,0-1.28l6-6A.88.88,0,0,1,7.47.6h4a.9.9,0,0,1,.9.9Z"/></g></g></svg>