<svg xmlns="http://www.w3.org/2000/svg" viewBox="0 0 14.99 15"><defs><style>.cls-1{fill:#70c1c3;}</style></defs><title>bu0007</title><g id="레이어_2" data-name="레이어 2"><g id="Layer_1" data-name="Layer 1"><path class="cls-1" d="M14.83.06a.37.37,0,0,0-.38,0L.17,8.12A.33.33,0,0,0,0,8.46a.34.34,0,0,0,.25.28l3.63,1a.37.37,0,0,0,.32-.06L10,5.12,6,10a.32.32,0,0,0-.08.21v4.42a.34.34,0,0,0,.25.32h.1a.36.36,0,0,0,.3-.16l2.52-3.78,3.69,1A.37.37,0,0,0,13,12a.34.34,0,0,0,.16-.23L15,.39A.33.33,0,0,0,14.83.06Z"/></g></g></svg>