<svg xmlns="http://www.w3.org/2000/svg" viewBox="0 0 11 13"><defs><style>.cls-1{fill:#54bbbd;}</style></defs><title>bu0011</title><g id="레이어_2" data-name="레이어 2"><g id="Layer_1" data-name="Layer 1"><path class="cls-1" d="M5.5,11.24A.22.22,0,0,0,5.73,11V3.75a.23.23,0,0,0-.46,0V11A.22.22,0,0,0,5.5,11.24Zm-2.29,0A.22.22,0,0,0,3.44,11V3.75a.23.23,0,0,0-.46,0V11A.22.22,0,0,0,3.21,11.24Zm4.58,0A.22.22,0,0,0,8,11V3.75a.23.23,0,0,0-.46,0V11A.22.22,0,0,0,7.79,11.24Zm3-9.92H7.55a1.71,1.71,0,0,0-.42-1A1,1,0,0,0,6.42,0H4.13A1,1,0,0,0,3.4.28a1.71,1.71,0,0,0-.42,1H.23a.22.22,0,1,0,0,.44H.7L1.14,11.9A1.09,1.09,0,0,0,2.26,13H8.74a1.09,1.09,0,0,0,1.12-1.09L10.3,1.76h.47a.22.22,0,1,0,0-.44Zm-7-.73A.53.53,0,0,1,4.13.44H6.42a.53.53,0,0,1,.39.15,1.27,1.27,0,0,1,.28.73H3.45A1.27,1.27,0,0,1,3.73.59Zm5.67,11.3a.65.65,0,0,1-.67.67H2.26a.66.66,0,0,1-.67-.67L1.16,1.76H9.84Z"/></g></g></svg>