<svg xmlns="http://www.w3.org/2000/svg" viewBox="0 0 14.99 15"><defs><style>.cls-1{fill:#fbd971;}</style></defs><title>bu0006</title><g id="레이어_2" data-name="레이어 2"><g id="Layer_1" data-name="Layer 1"><path class="cls-1" d="M14.66,6.8a1.15,1.15,0,0,0,.27-1.15,1.08,1.08,0,0,0-.87-.76l-3.63-.55a.48.48,0,0,1-.36-.27L8.46.63a1.06,1.06,0,0,0-1.93,0L4.91,4.06a.48.48,0,0,1-.36.27L.92,4.88a1.08,1.08,0,0,0-.87.76A1.15,1.15,0,0,0,.33,6.8L3,9.47a.51.51,0,0,1,.14.44l-.62,3.78a1.14,1.14,0,0,0,.43,1.1A1,1,0,0,0,4,14.87l3.25-1.78a.46.46,0,0,1,.44,0L11,14.87a1,1,0,0,0,1.13-.09,1.14,1.14,0,0,0,.43-1.1L11.9,9.91A.51.51,0,0,1,12,9.47Z"/></g></g></svg>