<svg xmlns="http://www.w3.org/2000/svg" viewBox="0 0 7.23 8.58"><title>bu0014</title><g id="레이어_2" data-name="레이어 2"><g id="Layer_1" data-name="Layer 1"><path d="M5.13,5h0L4.94,5l-.18-.07-.15,0-.23-.06-.08,0h0l-.14,0h0L4,4.72H3.86a3.77,3.77,0,0,0-.51,0H3.23l-.16,0h0L3,4.77l-.12,0-.22.06-.16.05h0L2.09,5h0A3.57,3.57,0,0,0,0,8.27s0,.06,0,.09v.22H7.22V8.36s0-.06,0-.1A3.57,3.57,0,0,0,5.13,5ZM2.74,4.27l.08,0,.06,0,.07,0a2.27,2.27,0,0,0,.65.1h.47l.07,0,.06,0,.09,0,.05,0,0,0,.1,0,0,0h0l.14-.07,0,0,.16-.1L5,4l.09-.07a2.19,2.19,0,0,0,.82-1.69v0a2.25,2.25,0,0,0-4.5-.14v0s0,.07,0,.11A2.22,2.22,0,0,0,2.74,4.27Z"/></g></g></svg>