<svg xmlns="http://www.w3.org/2000/svg" viewBox="0 0 33.56 33.75"><defs><style>.cls-1{fill:#dec1a3;stroke:#dec1a3;stroke-miterlimit:10;stroke-width:0.75px;fill-rule:evenodd;}.cls-2{fill:#fff;}.cls-3{fill:#f4d8bb;}.cls-4{fill:#6e331e;}</style></defs><title>co0006</title><g id="레이어_2" data-name="레이어 2"><g id="Layer_1" data-name="Layer 1"><path class="cls-1" d="M16.78.38A16.5,16.5,0,1,1,.38,16.88,16.45,16.45,0,0,1,16.78.38Z"/><path class="cls-2" d="M25.12,12.43c-1.7-3.57-4.48-6.85-7.74-6.85s-6.13,3.37-7.82,7A55.72,55.72,0,0,0,25.12,12.43Z"/><path class="cls-2" d="M7.91,19.55c.33,4.25,4.45,7.62,9.47,7.62s9.12-3.36,9.47-7.6A42.53,42.53,0,0,1,7.91,19.55Z"/><path class="cls-3" d="M25.12,12.43a55.72,55.72,0,0,1-15.56.16A16.55,16.55,0,0,0,7.88,19c0,.19,0,.37,0,.55a42.53,42.53,0,0,0,18.93,0c0-.19,0-.38,0-.58A16.7,16.7,0,0,0,25.12,12.43Z"/><path class="cls-4" d="M12.46,15.05H11v3.81h-.59V15.05H9V14.6h3.47Z"/><path class="cls-4" d="M14.35,18.87h-.6V14.6h.6Z"/><path class="cls-4" d="M18.23,18.07h0l1.4-3.47h.74v4.27H19.8v-3.2h0l-1.33,3.2H18l-1.37-3.3h0v3.3h-.59V14.6h.78Z"/><path class="cls-4" d="M24.43,16.89h-1.8v1.53h2.11v.45H22V14.6h2.67v.45H22.63v1.38h1.8Z"/></g></g></svg>