<svg xmlns="http://www.w3.org/2000/svg" viewBox="0 0 33.56 33.75"><defs><style>.cls-1{fill:#d84433;}</style></defs><title>co0001</title><g id="레이어_2" data-name="레이어 2"><g id="Layer_1" data-name="Layer 1"><path class="cls-1" d="M16.78,33.75A16.88,16.88,0,1,1,33.56,16.88,16.85,16.85,0,0,1,16.78,33.75Zm0-33a16.13,16.13,0,1,0,16,16.13A16.1,16.1,0,0,0,16.78.75Z"/><path class="cls-1" d="M11.77,22.21a17.51,17.51,0,0,0-2.47,0c-.19,1.14-.38,2.81.2,3.51a2.82,2.82,0,0,0,3.8.14c.93-1,.56-2.5.43-3.4A17.42,17.42,0,0,0,11.77,22.21Zm1.72-10.36c-2.12-.09-4.73,3.9-4.4,6.06a15.49,15.49,0,0,1,.37,3.3c0,.11,0,.28-.08.49a18.36,18.36,0,0,1,2.45,0,18.21,18.21,0,0,1,1.85.24,5.68,5.68,0,0,1,.37-2,19.72,19.72,0,0,1,1.43-2.65C16.1,16.14,15.6,11.93,13.48,11.84Zm5.16,7.26c-.5.82-1.32,2.06-.87,3.16s2.48,1.6,3.65.91c.79-.47,1.27-2,1.56-3.08a16.86,16.86,0,0,0-2.34-.69A17.42,17.42,0,0,0,18.64,19.1ZM23.25,9c-2-.5-4.21,3.33-4.07,4.54a17.37,17.37,0,0,1,.28,2.88,5.73,5.73,0,0,1-.55,2.18,18.14,18.14,0,0,1,1.87.29,17.46,17.46,0,0,1,2.32.68c.07-.28.12-.51.17-.65a17.33,17.33,0,0,1,1.69-3C26.15,14,25.29,9.51,23.25,9Z"/></g></g></svg>