<svg xmlns="http://www.w3.org/2000/svg" viewBox="0 0 33.56 33.75"><defs><style>.cls-1{fill:#0faeb0;}</style></defs><title>co0003</title><g id="레이어_2" data-name="레이어 2"><g id="Layer_1" data-name="Layer 1"><path class="cls-1" d="M16.78,33.75A16.88,16.88,0,1,1,33.56,16.88,16.85,16.85,0,0,1,16.78,33.75Zm0-33a16.13,16.13,0,1,0,16,16.13A16.1,16.1,0,0,0,16.78.75Z"/><path class="cls-1" d="M23.87,8.44a.41.41,0,0,0-.43,0L7,18.07a.4.4,0,0,0,.1.73l4.18,1.15a.41.41,0,0,0,.37-.08l6.68-5.38-4.66,5.87a.39.39,0,0,0-.09.25v5.27a.4.4,0,0,0,.29.38l.11,0a.41.41,0,0,0,.34-.18l2.91-4.51,4.26,1.17a.41.41,0,0,0,.33,0,.4.4,0,0,0,.18-.28L24,8.83A.4.4,0,0,0,23.87,8.44Z"/></g></g></svg>