<svg xmlns="http://www.w3.org/2000/svg" viewBox="0 0 35 30"><title>fp0003</title><g id="레이어_2" data-name="레이어 2"><g id="Layer_1" data-name="Layer 1"><path d="M34.75,27.3,19.09.9a1.86,1.86,0,0,0-3.18,0L.25,27.3a1.75,1.75,0,0,0,0,1.8,1.83,1.83,0,0,0,1.59.9H33.16a1.83,1.83,0,0,0,1.6-.9A1.75,1.75,0,0,0,34.75,27.3Zm-1.06,1.2a.61.61,0,0,1-.53.3H1.84a.61.61,0,0,1-.53-.3.58.58,0,0,1,0-.6L17,1.5A.62.62,0,0,1,18,1.5L33.69,27.9A.58.58,0,0,1,33.69,28.5ZM16.27,22.2H17.5v-12H16.27Zm0,3H17.5V24H16.27Z"/></g></g></svg>