<svg xmlns="http://www.w3.org/2000/svg" viewBox="0 0 12.02 16"><title>in0004</title><g id="레이어_2" data-name="레이어 2"><g id="Layer_1" data-name="Layer 1"><path d="M11.91,13,8.31,8.39l-1.92,3,2.87,4.33a.51.51,0,0,0,.81.05l1.81-2.11A.57.57,0,0,0,11.91,13ZM9.15,5.75A18,18,0,0,0,8.27,1,.55.55,0,0,0,8.1.75,3.53,3.53,0,0,0,6,0,3.53,3.53,0,0,0,3.92.75.54.54,0,0,0,3.75,1a18.14,18.14,0,0,0-.88,4.78A.57.57,0,0,0,3,6.09l.66,1L5.53,4.51,4.81,3.45A.37.37,0,0,1,5,2.89a3.63,3.63,0,0,1,1-.12,3.62,3.62,0,0,1,1,.11.37.37,0,0,1,.19.58L6.07,5l-6,8a.57.57,0,0,0,0,.71l1.81,2.11a.51.51,0,0,0,.81-.05l6.3-9.68A.57.57,0,0,0,9.15,5.75Z"/></g></g></svg>