<svg xmlns="http://www.w3.org/2000/svg" viewBox="0 0 13.51 14.51"><defs><style>.cls-1{fill:red;}</style></defs><title>in0012</title><g id="레이어_2" data-name="레이어 2"><g id="Layer_1" data-name="Layer 1"><path d="M5.5,11.24A.22.22,0,0,0,5.73,11V3.75a.23.23,0,0,0-.46,0V11A.22.22,0,0,0,5.5,11.24Zm-2.29,0A.22.22,0,0,0,3.44,11V3.75a.23.23,0,0,0-.46,0V11A.22.22,0,0,0,3.21,11.24Zm4.58,0A.22.22,0,0,0,8,11V3.75a.23.23,0,0,0-.46,0V11A.22.22,0,0,0,7.79,11.24Zm3-9.92H7.55a1.71,1.71,0,0,0-.42-1A1,1,0,0,0,6.42,0H4.13A1,1,0,0,0,3.4.28a1.71,1.71,0,0,0-.42,1H.23a.22.22,0,1,0,0,.44H.7L1.14,11.9A1.09,1.09,0,0,0,2.26,13H8.74a1.09,1.09,0,0,0,1.12-1.09L10.3,1.76h.47a.22.22,0,1,0,0-.44Zm-7-.73A.53.53,0,0,1,4.13.44H6.42a.53.53,0,0,1,.39.15,1.27,1.27,0,0,1,.28.73H3.45A1.27,1.27,0,0,1,3.73.59Zm5.67,11.3a.65.65,0,0,1-.67.67H2.26a.66.66,0,0,1-.67-.67L1.16,1.76H9.84Z"/><path class="cls-1" d="M12.39,7.53a.14.14,0,0,0-.2,0L10.1,9.62a.15.15,0,0,1-.2,0L7.81,7.53a.14.14,0,0,0-.2,0L6.53,8.61a.15.15,0,0,0,0,.2L8.62,10.9a.14.14,0,0,1,0,.2L6.53,13.19a.14.14,0,0,0,0,.2l1.07,1.07a.14.14,0,0,0,.2,0L9.9,12.38a.14.14,0,0,1,.2,0l2.09,2.09a.14.14,0,0,0,.2,0l1.07-1.07a.15.15,0,0,0,0-.2L11.38,11.1a.14.14,0,0,1,0-.2l2.09-2.09a.15.15,0,0,0,0-.2Z"/></g></g></svg>