<svg xmlns="http://www.w3.org/2000/svg" viewBox="0 0 14 10"><defs><style>.cls-1{fill:#ff9256;}</style></defs><title>in0001</title><g id="레이어_2" data-name="레이어 2"><g id="Layer_1" data-name="Layer 1"><path class="cls-1" d="M1.34,3.08l1.6,1,2,1.3.33.22.42.27.41.23a2.48,2.48,0,0,0,.45.19A1.35,1.35,0,0,0,7,6.36H7A1.35,1.35,0,0,0,7.4,6.3a2.47,2.47,0,0,0,.45-.19l.41-.23.42-.27L9,5.39l3.66-2.31a3.56,3.56,0,0,0,1-.87A1.76,1.76,0,0,0,14,1.14a1,1,0,0,0-.37-.8A1.27,1.27,0,0,0,12.75,0H1.25A1.17,1.17,0,0,0,.32.37,1.35,1.35,0,0,0,0,1.29a1.58,1.58,0,0,0,.43,1A3.73,3.73,0,0,0,1.34,3.08Zm8,3.21-.72.47a4.64,4.64,0,0,1-.74.34A2.44,2.44,0,0,1,7,7.27H7a2.44,2.44,0,0,1-.86-.17,4.64,4.64,0,0,1-.74-.34l-.72-.47Q3.62,5.59.79,3.84A4.06,4.06,0,0,1,0,3.23V8.87a1,1,0,0,0,.37.8,1.27,1.27,0,0,0,.88.33h11.5a1.27,1.27,0,0,0,.88-.33,1,1,0,0,0,.37-.8V3.23a4.22,4.22,0,0,1-.78.62Q10.66,5.42,9.33,6.29Z"/></g></g></svg>