<svg xmlns="http://www.w3.org/2000/svg" viewBox="0 0 13 15"><defs><style>.cls-1{fill:#7683ce;}</style></defs><title>in0002</title><g id="레이어_2" data-name="레이어 2"><g id="Layer_1" data-name="Layer 1"><path class="cls-1" d="M9.74,4.49A4.8,4.8,0,0,0,11.1,1.13,1.11,1.11,0,0,0,10,0H3A1.11,1.11,0,0,0,1.9,1.13,4.8,4.8,0,0,0,3.26,4.49,6.74,6.74,0,0,0,0,10.29C0,15,4.72,15,6.5,15S13,15,13,10.29A6.73,6.73,0,0,0,9.74,4.49Zm-.93,6.44a1.81,1.81,0,0,1-1.75,1.86v.43a.56.56,0,1,1-1.12,0v-.48a3.72,3.72,0,0,1-1.51-.65.63.63,0,0,1-.24-.5.61.61,0,0,1,1-.49,2.44,2.44,0,0,0,1.51.55c.53,0,.85-.22.85-.57v0c0-.34-.2-.51-1.19-.77-1.19-.31-2-.65-2-1.86v0A1.78,1.78,0,0,1,5.94,6.62V6.17a.56.56,0,1,1,1.12,0v.46a3.24,3.24,0,0,1,1.25.48.62.62,0,1,1-.65,1.05,2.41,2.41,0,0,0-1.24-.41c-.5,0-.76.23-.76.53v0c0,.4.25.53,1.27.8,1.2.32,1.87.76,1.87,1.82v0Z"/></g></g></svg>