<svg xmlns="http://www.w3.org/2000/svg" viewBox="0 0 10 12"><defs><style>.cls-1{fill:#ff782d;}</style></defs><title>in0009</title><g id="레이어_2" data-name="레이어 2"><g id="Layer_1" data-name="Layer 1"><path class="cls-1" d="M7.6,0H3.2a.81.81,0,0,0-.8.82V2H.8a.81.81,0,0,0-.8.82v8.32A.81.81,0,0,0,.8,12h6a.81.81,0,0,0,.8-.82V10H9.2a.81.81,0,0,0,.8-.82V2.86Zm0,.61L9.48,2.86H8a.44.44,0,0,1-.4-.41ZM7.2,11.18a.41.41,0,0,1-.4.41H.8a.41.41,0,0,1-.4-.41V2.86a.41.41,0,0,1,.4-.41h4v2a.81.81,0,0,0,.8.82H7.2ZM5.2,4.5V2.66L7.08,4.91H5.6A.44.44,0,0,1,5.2,4.5ZM9.6,9.14a.41.41,0,0,1-.4.41H7.6V4.91L5.2,2H2.8V.82A.41.41,0,0,1,3.2.41h4v2a.81.81,0,0,0,.8.82H9.6Z"/></g></g></svg>