<svg xmlns="http://www.w3.org/2000/svg" viewBox="0 0 15 15"><defs><style>.cls-1{fill:#9aadb5;}</style></defs><title>in0008</title><g id="레이어_2" data-name="레이어 2"><g id="Layer_1" data-name="Layer 1"><path class="cls-1" d="M7.5,0A7.5,7.5,0,1,0,15,7.5,7.51,7.51,0,0,0,7.5,0Zm0,14.42A6.92,6.92,0,1,1,14.42,7.5,6.93,6.93,0,0,1,7.5,14.42Zm0-3.75a.29.29,0,0,0-.29.29v.58a.29.29,0,1,0,.58,0V11A.29.29,0,0,0,7.5,10.67Zm0-8.08h0A2.31,2.31,0,0,0,5.19,4.9a.29.29,0,1,0,.58,0A1.73,1.73,0,0,1,7.52,3.17,1.76,1.76,0,0,1,9.23,4.88a1.72,1.72,0,0,1-.79,1.48A2.75,2.75,0,0,0,7.21,8.7v.82a.29.29,0,1,0,.58,0V8.7a2.21,2.21,0,0,1,1-1.86,2.3,2.3,0,0,0,1.06-2A2.32,2.32,0,0,0,7.53,2.6Z"/></g></g></svg>