<svg xmlns="http://www.w3.org/2000/svg" viewBox="0 0 26.99 32"><title>in0016</title><g id="레이어_2" data-name="레이어 2"><g id="Layer_1" data-name="Layer 1"><path d="M19.13,18.78l-.08,0-.6-.25-.68-.24-.55-.17-.85-.22-.3-.06H16l-.52-.09h-.11l-.44-.06-.51,0a14.06,14.06,0,0,0-1.9,0l-.18,0h-.08l-.21,0-.58.08h-.06l-.39.07-.43.08-.81.21-.61.19-.14,0c-.42.14-.83.31-1.23.49l-.11.05h0A13.33,13.33,0,0,0,0,30.85c0,.12,0,.23,0,.35l0,.81H26.94l0-.8c0-.12,0-.24,0-.36A13.32,13.32,0,0,0,19.13,18.78ZM1.32,30.7A12,12,0,0,1,8.3,20L8.44,20l0,0c.33-.15.67-.28,1-.4l.11,0,.57-.18.73-.19.39-.08.31-.05h.05l.57-.08.43,0a11.76,11.76,0,0,1,1.76,0l.42,0,.33,0,.15,0,.47.08h.07l.26.05.77.19.5.15.61.22.57.24h0A12,12,0,0,1,25.67,30.7H1.32Zm8.92-14.79.3.11.21.08.25.09a8.47,8.47,0,0,0,2.44.38h.07a8.49,8.49,0,0,0,.85,0l.28,0,.21,0,.35-.06.24-.06.23-.06L16,16.2l.2-.07.18-.06.39-.14.15-.07.06,0,.53-.25.11-.07c.2-.11.39-.22.59-.36l.3-.22.34-.26a8.18,8.18,0,0,0,3.06-6.31V8.29a8.41,8.41,0,0,0-16.8-.52v.11c0,.14,0,.27,0,.41A8.27,8.27,0,0,0,10.24,15.92ZM6.43,8V7.84a7.1,7.1,0,0,1,14.17.38v.07A7,7,0,0,1,18,13.68l-.31.23-.23.17c-.16.11-.33.2-.5.3l-.09.06-.45.21-.17.08-.31.11-.22.08-.13,0-.25.06-.26.07-.16,0-.27,0-.25,0-.19,0c-.22,0-.44,0-.66,0h-.06A7.16,7.16,0,0,1,11.4,15l-.17-.06L11,14.81l-.23-.08A7,7,0,0,1,6.42,8.29C6.42,8.18,6.43,8.07,6.43,8Z"/></g></g></svg>