<svg xmlns="http://www.w3.org/2000/svg" viewBox="0 0 10.99 14"><defs><style>.cls-1{fill:#9aadb5;}</style></defs><title>in0006</title><g id="레이어_2" data-name="레이어 2"><g id="Layer_1" data-name="Layer 1"><path class="cls-1" d="M7.11,8.25,5.7,9.7V5.47a.2.2,0,1,0-.41,0V9.71L3.87,8.25a.2.2,0,0,0-.29,0,.21.21,0,0,0,0,.3l1.76,1.81a.2.2,0,0,0,.29,0L7.4,8.55a.21.21,0,0,0,0-.3A.2.2,0,0,0,7.11,8.25ZM11,3.66a.2.2,0,0,0,0-.08s0,0,0-.07h0L7.66.06h0a.2.2,0,0,0-.11,0l0,0H1A1,1,0,0,0,0,1.05v11.9A1,1,0,0,0,1,14H10a1,1,0,0,0,1-1.05V3.66h0ZM7.72.73,10.3,3.45H7.72Zm2.86,12.22a.62.62,0,0,1-.61.63H1a.62.62,0,0,1-.61-.63V1.05A.62.62,0,0,1,1,.42H7.31V3.66a.21.21,0,0,0,.2.21h3.06Z"/></g></g></svg>