<svg xmlns="http://www.w3.org/2000/svg" viewBox="0 0 9 15"><defs><style>.cls-1{fill:#9aadb5;}</style></defs><title>in0005</title><g id="레이어_2" data-name="레이어 2"><g id="Layer_1" data-name="Layer 1"><path class="cls-1" d="M8.25,14.74a1,1,0,0,1-1-1.09V6.87c.3,0,.55-.33.55-.74a3.71,3.71,0,0,0-.55-1.25v-.3c-.49-.75-3.46.83-4.72,0-.24-.14-.42,0-.57.22A4.83,4.83,0,0,0,1.2,6.48a1.13,1.13,0,0,0,.31.81,1,1,0,0,0-.06.3.7.7,0,0,0,.47.73v5.62C1.85,14.93.14,14.6,0,15H9A.93.93,0,0,0,8.25,14.74ZM3.7,4a1.51,1.51,0,0,0,.42.4A2.89,2.89,0,0,1,4,3.55,2.94,2.94,0,0,1,4,2.72a4,4,0,0,1,.44-1.06l0-.05A2.92,2.92,0,0,1,5,2.29a2.26,2.26,0,0,1,.22.8,3,3,0,0,1,0,.65c0,.11,0,.22-.06.32s-.05.21-.07.32A2.25,2.25,0,0,0,5.92,3a2.21,2.21,0,0,0,0-.53,2.52,2.52,0,0,0-.12-.68,2.83,2.83,0,0,0-.37-.74A3.22,3.22,0,0,0,4.92.48L4.66.27,4.27,0,3.94.48a4,4,0,0,0-.61,1.34,3.1,3.1,0,0,0-.08.83,2.53,2.53,0,0,0,.18.82A2.2,2.2,0,0,0,3.7,4Z"/></g></g></svg>