<svg xmlns="http://www.w3.org/2000/svg" viewBox="0 0 17.05 14"><defs><style>.cls-1{fill:#ff4e90;}</style></defs><title>lg0004</title><g id="레이어_2" data-name="레이어 2"><g id="Layer_1" data-name="Layer 1"><path class="cls-1" d="M16.9,12.47,9.42.49a1.06,1.06,0,0,0-1.79,0l-7.48,12a1,1,0,0,0,0,1A1.05,1.05,0,0,0,1,14H16a1.05,1.05,0,0,0,.91-.51A1,1,0,0,0,16.9,12.47ZM8.53,4.14a.7.7,0,0,1,.79.6v0c0,1.27-.15,3.08-.15,4.35a.57.57,0,0,1-.64.47.54.54,0,0,1-.64-.41V9.14c0-1.27-.15-3.08-.15-4.35a.7.7,0,0,1,.74-.66Zm0,7.86a.82.82,0,1,1,.84-.82.85.85,0,0,1-.84.82Z"/></g></g></svg>