<svg xmlns="http://www.w3.org/2000/svg" viewBox="0 0 8.44 11.52"><defs><style>.cls-1{fill:#e43d2a;}</style></defs><title>li0001</title><g id="레이어_2" data-name="레이어 2"><g id="Layer_1" data-name="Layer 1"><path class="cls-1" d="M7.3,7.94V5.53a3.1,3.1,0,1,0-6.19,0V7.94l-.8,1.7a.31.31,0,0,0,.29.47H2.84v0a1.38,1.38,0,1,0,2.76,0v0H7.84c.28,0,.4-.22.28-.47ZM4.21,1.73a.34.34,0,0,0,.33-.34V.34a.33.33,0,1,0-.67,0V1.39A.34.34,0,0,0,4.21,1.73ZM1.07,3a.33.33,0,0,0,.24-.1.34.34,0,0,0,0-.48L.57,1.7a.33.33,0,0,0-.47,0,.34.34,0,0,0,0,.48l.74.75A.33.33,0,0,0,1.07,3ZM8.35,1.7a.33.33,0,0,0-.47,0l-.74.75a.34.34,0,0,0,0,.48.33.33,0,0,0,.47,0l.74-.75A.34.34,0,0,0,8.35,1.7Z"/></g></g></svg>