<svg xmlns="http://www.w3.org/2000/svg" viewBox="0 0 16 12"><defs><style>.cls-1{fill:#ffb9a1;}</style></defs><title>me0023</title><g id="레이어_2" data-name="레이어 2"><g id="Layer_1" data-name="Layer 1"><path class="cls-1" d="M16,6.63a4.74,4.74,0,0,0-3.36-4.25.34.34,0,0,0-.43.17.31.31,0,0,0,.18.41,4.12,4.12,0,0,1,2.94,3.66,3.83,3.83,0,0,1-2,3.21.31.31,0,0,0-.12.41l.3.58-.83-.49a.35.35,0,0,0-.3,0,6.72,6.72,0,0,1-5.24-.22.34.34,0,0,0-.45.13.31.31,0,0,0,.14.43,7.42,7.42,0,0,0,5.64.31l1.7,1a.35.35,0,0,0,.18,0,.35.35,0,0,0,.22-.08.3.3,0,0,0,.07-.38l-.7-1.33A4.37,4.37,0,0,0,16,6.63Zm-4-1.9C12,2.12,9.31,0,6,0S0,2.12,0,4.74A4.37,4.37,0,0,0,2.07,8.31l-.7,1.33a.3.3,0,0,0,.07.38.34.34,0,0,0,.22.08.34.34,0,0,0,.18,0l1.7-1A7.29,7.29,0,0,0,6,9.47C9.31,9.47,12,7.35,12,4.74ZM6,8.84a6.58,6.58,0,0,1-2.37-.43.35.35,0,0,0-.3,0l-.83.49.3-.58a.31.31,0,0,0-.12-.41,3.83,3.83,0,0,1-2-3.21C.67,2.47,3.06.63,6,.63s5.33,1.84,5.33,4.11S8.94,8.84,6,8.84Z"/></g></g></svg>