<svg xmlns="http://www.w3.org/2000/svg" viewBox="0 0 15.72 15.81"><defs><style>.cls-1{fill:#92f0a2;fill-rule:evenodd;}.cls-2{fill:#5d7599;}</style></defs><title>me0009</title><g id="레이어_2" data-name="레이어 2"><g id="Layer_1" data-name="Layer 1"><path class="cls-1" d="M7.86,0A7.91,7.91,0,1,1,0,7.91,7.88,7.88,0,0,1,7.86,0Z"/><path class="cls-2" d="M4.53,8.29c.61-.88,1-1.45,1.24-1.87a3.67,3.67,0,0,0-2,1.35l.67.67A.7.7,0,0,1,4.53,8.29Zm2.6,2.82.67.67a3.67,3.67,0,0,0,1.35-2c-.42.26-1,.62-1.87,1.24Zm-1-.34-.34.13a5.33,5.33,0,0,1-1,.22l-.41,0v-.05a6.22,6.22,0,0,1,.16-1c0-.16.09-.31.14-.46s.08-.18.12-.28l-.07-.07a1.82,1.82,0,0,0-.43.4,2.66,2.66,0,0,0-.41.77,3.21,3.21,0,0,0-.17.93.73.73,0,0,0,0,.13A.31.31,0,0,0,4,11.8H4.1a3.09,3.09,0,0,0,.85-.13,2.35,2.35,0,0,0,1.3-.87l-.07-.07Zm5.55-6.87h0a.28.28,0,0,0-.2-.08h0c-.89,0-3.09.18-4.25,1.35A6.35,6.35,0,0,0,6.13,6.57c-.27.44-.64,1-1.32,2a.28.28,0,0,0,0,.35l1.78,1.78a.28.28,0,0,0,.35,0c1-.68,1.57-1.05,2-1.32A6.35,6.35,0,0,0,10.4,8.35C11.57,7.18,11.73,5,11.75,4.09A.28.28,0,0,0,11.67,3.89ZM9.6,7.26A.92.92,0,1,1,9.6,6,.92.92,0,0,1,9.6,7.26Z"/></g></g></svg>