<svg xmlns="http://www.w3.org/2000/svg" viewBox="0 0 19 14"><title>me0035</title><g id="레이어_2" data-name="레이어 2"><g id="Layer_1" data-name="Layer 1"><path d="M15.37,4.49a.45.45,0,1,0,.46.45A.45.45,0,0,0,15.37,4.49Zm-2.93,0a.45.45,0,1,0,.46.45A.45.45,0,0,0,12.43,4.49Zm-2.93,0a.45.45,0,1,0,.46.45A.45.45,0,0,0,9.5,4.49Zm-2.93.9a.45.45,0,1,0-.46-.45A.45.45,0,0,0,6.57,5.38Zm-2.93-.9a.45.45,0,1,0,.46.45A.45.45,0,0,0,3.63,4.49ZM15.37,7.37a.45.45,0,1,0,.46.45A.45.45,0,0,0,15.37,7.37Zm-2.93,0a.45.45,0,1,0,.46.45A.45.45,0,0,0,12.43,7.37Zm-2.93,0a.45.45,0,1,0,.46.45A.45.45,0,0,0,9.5,7.37Zm-5.87,0a.45.45,0,1,0,.46.45A.45.45,0,0,0,3.63,7.37Zm11.73,2.88a.45.45,0,1,0,.46.45A.45.45,0,0,0,15.37,10.24Zm-2.93,0a.45.45,0,1,0,.46.45A.45.45,0,0,0,12.43,10.24Zm-2.93,0a.45.45,0,1,0,.46.45A.45.45,0,0,0,9.5,10.24Zm-2.93,0a.45.45,0,1,0,.46.45A.45.45,0,0,0,6.57,10.24Zm-2.93,0a.45.45,0,1,0,.46.45A.45.45,0,0,0,3.63,10.24ZM7.95,6.08H5.19a.39.39,0,0,0-.39.39V9.17a.39.39,0,0,0,.39.39H7.95a.39.39,0,0,0,.39-.39V6.46A.39.39,0,0,0,7.95,6.08ZM7.55,8.78h-2V6.85h2ZM17.69.92H14.81V.43a.44.44,0,0,0-.87,0V.92H11.56V.43a.44.44,0,0,0-.87,0V.92H8.31V.43a.44.44,0,0,0-.87,0V.92H5.06V.43a.44.44,0,0,0-.87,0V.92H1.31A1.3,1.3,0,0,0,0,2.21V12.72A1.3,1.3,0,0,0,1.31,14H17.69A1.3,1.3,0,0,0,19,12.72V2.21A1.3,1.3,0,0,0,17.69.92Zm.44,11.79a.43.43,0,0,1-.44.43H1.31a.43.43,0,0,1-.44-.43V2.21a.43.43,0,0,1,.44-.43H4.19v.49a.44.44,0,0,0,.87,0V1.78H7.44v.49a.44.44,0,0,0,.87,0V1.78h2.37v.49a.44.44,0,0,0,.87,0V1.78h2.38v.49a.44.44,0,0,0,.87,0V1.78h2.88a.43.43,0,0,1,.44.43Z"/></g></g></svg>