<svg xmlns="http://www.w3.org/2000/svg" viewBox="0 0 16.22 16.31"><defs><style>.cls-1,.cls-4{fill:#fff;}.cls-1{fill-rule:evenodd;}.cls-2{fill:#dae9f8;}.cls-3{fill:#5d7599;}</style></defs><title>me0008</title><g id="레이어_2" data-name="레이어 2"><g id="Layer_1" data-name="Layer 1"><path class="cls-1" d="M8.11.25A7.91,7.91,0,1,1,.25,8.16,7.88,7.88,0,0,1,8.11.25Z"/><path class="cls-2" d="M8.11,16.31a8.16,8.16,0,1,1,8.11-8.16A8.14,8.14,0,0,1,8.11,16.31ZM8.11.5a7.66,7.66,0,1,0,7.61,7.66A7.64,7.64,0,0,0,8.11.5Z"/><path class="cls-3" d="M11.75,6.15C10.93,4.42,9.58,2.84,8,2.84S5,4.47,4.21,6.23A27,27,0,0,0,11.75,6.15Z"/><path class="cls-3" d="M3.42,9.6A4.37,4.37,0,0,0,8,13.29a4.37,4.37,0,0,0,4.58-3.68A20.59,20.59,0,0,1,3.42,9.6Z"/><path class="cls-4" d="M11.75,6.15a27,27,0,0,1-7.53.08,8,8,0,0,0-.81,3.1c0,.09,0,.18,0,.27a20.59,20.59,0,0,0,9.17,0c0-.09,0-.18,0-.28A8.09,8.09,0,0,0,11.75,6.15Z"/><path class="cls-3" d="M5.85,7.22v.46H5.41V9.41H5V7.67H4.53V7.22Z"/><path class="cls-3" d="M6.9,7.22v2.2H6.46V7.22Z"/><path class="cls-3" d="M8,7.22v.45H7.51V7.22Zm0,.44v.45H7.51V7.65Zm0,.44v.45H7.51V8.09Zm0,.44V9H7.51V8.52ZM8,9v.45H7.51V9ZM8,7.65v0H7.52v0Zm.45,0v.45H7.95V7.65Zm.44.44v.45H8.39V8.09Zm-.44.45h0V8.1h0Zm.87-.88v.45H8.82V7.65Zm.44-.44v.45H9.26V7.22Zm0,.44v.45H9.26V7.65Zm0,.44v.45H9.26V8.09Zm0,.44V9H9.26V8.52Zm0,.44v.45H9.26V9Z"/><path class="cls-3" d="M11.65,9v.46H10.33V7.22h1.32v.46h-.87v.41h.87v.46h-.87V9Z"/></g></g></svg>