<svg xmlns="http://www.w3.org/2000/svg" viewBox="0 0 37.53 37.53"><defs><style>.cls-1,.cls-2{fill:#fff;}.cls-1{opacity:0.31;}.cls-3{fill:#f84a0e;opacity:0.76;isolation:isolate;}</style></defs><title>me0040</title><g id="레이어_2" data-name="레이어 2"><g id="Layer_1" data-name="Layer 1"><circle class="cls-1" cx="18.76" cy="18.76" r="18.76"/><circle class="cls-2" cx="18.76" cy="18.76" r="15.15"/><circle class="cls-3" cx="18.76" cy="18.76" r="13.2"/><circle class="cls-3" cx="18.76" cy="18.76" r="11.57"/><path class="cls-2" d="M27.07,19.08l-4-3.89V11.9a.65.65,0,0,0-1.31,0v2l-2.55-2.48a.67.67,0,0,0-.92,0l-7.85,7.64a.62.62,0,0,0,0,.9.67.67,0,0,0,.92,0l1.5-1.46v6.1a.65.65,0,0,0,.65.64H24a.65.65,0,0,0,.65-.64v-6.1L26.15,20a.67.67,0,0,0,.92,0A.62.62,0,0,0,27.07,19.08Zm-8,2.61-.3.25-.3-.25c-1.12-1-1.85-1.51-1.85-2.41a1.15,1.15,0,0,1,1.18-1.15,1.31,1.31,0,0,1,1,.44,1.31,1.31,0,0,1,1-.44,1.15,1.15,0,0,1,1.18,1.15C20.92,20.09,20.19,20.74,19.07,21.7Z"/></g></g></svg>