<svg xmlns="http://www.w3.org/2000/svg" viewBox="0 0 18 15"><defs><style>.cls-1{fill:#724040;fill-rule:evenodd;}</style></defs><title>Asset 1</title><g id="Layer_2" data-name="Layer 2"><g id="Layer_1-2" data-name="Layer 1"><path class="cls-1" d="M1.94,0A1.89,1.89,0,0,0,0,1.83,1.9,1.9,0,0,0,1.94,3.67,1.89,1.89,0,0,0,3.87,1.84,1.89,1.89,0,0,0,1.94,0Zm0,2.81a1,1,0,0,1-1-1,1,1,0,0,1,1-1,1,1,0,0,1,1,1A1,1,0,0,1,1.94,2.81Zm0,2.85A1.89,1.89,0,0,0,0,7.5,1.89,1.89,0,0,0,1.94,9.33,1.89,1.89,0,0,0,3.87,7.5,1.89,1.89,0,0,0,1.94,5.67Zm0,2.81a1,1,0,1,1,0-2,1,1,0,1,1,0,2Zm0,2.85a1.84,1.84,0,1,0,0,3.67,1.84,1.84,0,1,0,0-3.67Zm0,2.81a1,1,0,1,1,0-2,1,1,0,1,1,0,2ZM6,1V2H18V1ZM6,8H18V7H6Zm0,6H18V13H6Z"/></g></g></svg>