<svg xmlns="http://www.w3.org/2000/svg" viewBox="0 0 21 21"><defs><style>.cls-1{fill:#4b44e4;fill-rule:evenodd;}.cls-2{fill:#fff;}</style></defs><title>me0016</title><g id="레이어_2" data-name="레이어 2"><g id="Layer_1" data-name="Layer 1"><path class="cls-1" d="M10.5,0A10.5,10.5,0,1,1,0,10.5,10.5,10.5,0,0,1,10.5,0Z"/><path class="cls-2" d="M15.93,10.15l-4.47,2.69a2,2,0,0,1-1.93,0L5.18,10.22s-.39-.24-.39.3v2.62C4.79,14.51,7.34,16,10.5,16s5.71-1.49,5.71-2.87V10.37C16.21,9.94,15.93,10.15,15.93,10.15ZM17.75,7.4,11.11,4.14a1.3,1.3,0,0,0-1.22,0L3.25,7.4a.39.39,0,0,0,0,.73l6.64,4a1.3,1.3,0,0,0,1.22,0l6.64-4A.39.39,0,0,0,17.75,7.4Zm-.2,6.75a.11.11,0,0,1-.07-.1V9.64s0-.21-.12-.14a3.72,3.72,0,0,0-.44.27.36.36,0,0,0-.08.28v4a.12.12,0,0,1-.07.1.76.76,0,0,0-.38.66.78.78,0,0,0,1.55,0A.76.76,0,0,0,17.55,14.15Z"/></g></g></svg>