<svg xmlns="http://www.w3.org/2000/svg" viewBox="0 0 16.22 16.31"><defs><style>.cls-1{fill:#fff;fill-rule:evenodd;}.cls-2{fill:#dae9f8;}.cls-3{fill:#5d7599;}</style></defs><title>me0004</title><g id="레이어_2" data-name="레이어 2"><g id="Layer_1" data-name="Layer 1"><path class="cls-1" d="M8.11.25A7.91,7.91,0,1,1,.25,8.16,7.88,7.88,0,0,1,8.11.25Z"/><path class="cls-2" d="M8.11,16.31a8.16,8.16,0,1,1,8.11-8.16A8.14,8.14,0,0,1,8.11,16.31ZM8.11.5a7.66,7.66,0,1,0,7.61,7.66A7.64,7.64,0,0,0,8.11.5Z"/><path class="cls-3" d="M5.43,10.46a9.35,9.35,0,0,0-1.32,0c-.1.61-.21,1.5.11,1.87a1.51,1.51,0,0,0,2,.08c.5-.52.3-1.33.23-1.81A9.37,9.37,0,0,0,5.43,10.46Zm.92-5.52C5.21,4.9,3.82,7,4,8.17a8.26,8.26,0,0,1,.2,1.76c0,.06,0,.15,0,.26a9.85,9.85,0,0,1,1.31,0,9.78,9.78,0,0,1,1,.13,3,3,0,0,1,.2-1.09A10.5,10.5,0,0,1,7.4,7.82C7.74,7.23,7.48,5,6.34,4.94ZM9.1,8.81c-.27.44-.71,1.1-.46,1.68a1.46,1.46,0,0,0,1.95.48,2.93,2.93,0,0,0,.83-1.64A9,9,0,0,0,10.16,9,9.29,9.29,0,0,0,9.1,8.81Zm2.46-5.37c-1.09-.27-2.25,1.77-2.17,2.42a9.28,9.28,0,0,1,.15,1.53,3,3,0,0,1-.29,1.16,9.7,9.7,0,0,1,1,.15,9.35,9.35,0,0,1,1.24.36c0-.15.07-.27.09-.35a9.22,9.22,0,0,1,.9-1.6C13.1,6.08,12.65,3.7,11.56,3.44Z"/></g></g></svg>