<svg xmlns="http://www.w3.org/2000/svg" viewBox="0 0 15.97 15.97"><defs><style>.cls-1{fill:#8b3010;fill-rule:evenodd;}.cls-2{fill:#fff;}</style></defs><title>me0043_1</title><g id="레이어_2" data-name="레이어 2"><g id="Layer_1" data-name="Layer 1"><path class="cls-1" d="M8,0A8,8,0,1,1,0,8,8,8,0,0,1,8,0Z"/><path class="cls-2" d="M10.61,12.7a2.93,2.93,0,0,1-.93.14A2.45,2.45,0,0,1,7.3,11.3c-1.42-.2-2.37-1.45-2.37-3.36C4.93,5.87,6.07,4.6,7.7,4.6s2.77,1.27,2.77,3.35c0,1.87-.92,3.11-2.29,3.35a1.69,1.69,0,0,0,1.59.87,2.24,2.24,0,0,0,.68-.1Zm-2.91-2c1.16,0,1.93-1.05,1.93-2.71S8.86,5.32,7.7,5.32s-1.93,1-1.93,2.63S6.53,10.66,7.7,10.66Z"/></g></g></svg>