<svg xmlns="http://www.w3.org/2000/svg" xmlns:xlink="http://www.w3.org/1999/xlink" viewBox="0 0 13 13"><defs><style>.cls-1{fill:none;}.cls-2{fill:#f1dbb2;fill-rule:evenodd;}.cls-3{clip-path:url(#clip-path);}.cls-4{fill:#010002;}</style><clipPath id="clip-path"><rect class="cls-1" x="3.98" y="4" width="5.04" height="5.02"/></clipPath></defs><title>me0031</title><g id="레이어_2" data-name="레이어 2"><g id="Layer_1" data-name="Layer 1"><path class="cls-2" d="M6.46,0A6.5,6.5,0,1,1,0,6.54,6.5,6.5,0,0,1,6.46,0Z"/><g class="cls-3"><path class="cls-4" d="M8.85,9a.14.14,0,0,1-.1,0L4,4.24a.14.14,0,0,1,.2-.2L9,8.75A.14.14,0,0,1,9,9a.15.15,0,0,1-.1,0Zm0,0"/><path class="cls-4" d="M4.12,9A.15.15,0,0,1,4,9a.14.14,0,0,1,0-.2L8.75,4a.14.14,0,1,1,.2.2L4.22,9a.14.14,0,0,1-.1,0Zm0,0"/></g></g></g></svg>