<svg xmlns="http://www.w3.org/2000/svg" viewBox="0 0 15.72 15.81"><defs><style>.cls-1{fill:#fb7262;fill-rule:evenodd;}.cls-2{fill:#fff;}</style></defs><title>me0003</title><g id="레이어_2" data-name="레이어 2"><g id="Layer_1" data-name="Layer 1"><path class="cls-1" d="M7.86,0A7.91,7.91,0,1,1,0,7.91,7.88,7.88,0,0,1,7.86,0Z"/><path class="cls-2" d="M5.18,10.21a9.35,9.35,0,0,0-1.32,0c-.1.61-.21,1.5.11,1.87a1.51,1.51,0,0,0,2,.08c.5-.52.3-1.33.23-1.81A9.37,9.37,0,0,0,5.18,10.21Zm.92-5.52C5,4.65,3.57,6.77,3.74,7.92a8.26,8.26,0,0,1,.2,1.76c0,.06,0,.15,0,.26a9.85,9.85,0,0,1,1.31,0,9.78,9.78,0,0,1,1,.13A3,3,0,0,1,6.39,9a10.5,10.5,0,0,1,.76-1.41C7.49,7,7.23,4.74,6.09,4.69ZM8.85,8.56c-.27.44-.71,1.1-.46,1.68a1.46,1.46,0,0,0,1.95.48,2.93,2.93,0,0,0,.83-1.64,9,9,0,0,0-1.25-.37A9.29,9.29,0,0,0,8.85,8.56Zm2.46-5.37C10.22,2.92,9.06,5,9.14,5.61a9.28,9.28,0,0,1,.15,1.53A3,3,0,0,1,9,8.3a9.7,9.7,0,0,1,1,.15,9.35,9.35,0,0,1,1.24.36c0-.15.07-.27.09-.35a9.22,9.22,0,0,1,.9-1.6C12.85,5.83,12.4,3.45,11.31,3.19Z"/></g></g></svg>