<svg xmlns="http://www.w3.org/2000/svg" viewBox="0 0 14 12"><defs><style>.cls-1{fill:#ffb9a1;}</style></defs><title>me0022</title><g id="레이어_2" data-name="레이어 2"><g id="Layer_1" data-name="Layer 1"><path class="cls-1" d="M12.87,1.11a3.95,3.95,0,0,0-5.48,0L7,1.49l-.39-.38a3.94,3.94,0,0,0-5.48,0,3.71,3.71,0,0,0,0,5.34l5.57,5.43a.41.41,0,0,0,.56,0l5.59-5.43a3.72,3.72,0,0,0,0-5.35ZM12.3,5.91,7,11.06,1.7,5.9a2.94,2.94,0,0,1,0-4.24A3.13,3.13,0,0,1,6,1.66l.67.65a.41.41,0,0,0,.57,0L8,1.67a3.13,3.13,0,0,1,4.35,0,3,3,0,0,1,0,4.24Z"/></g></g></svg>