<svg xmlns="http://www.w3.org/2000/svg" viewBox="0 0 37.53 37.53"><defs><style>.cls-1,.cls-2{fill:#fff;}.cls-1{opacity:0.31;}.cls-3{fill:#37bb37;opacity:0.76;isolation:isolate;}</style></defs><title>me0042</title><g id="레이어_2" data-name="레이어 2"><g id="Layer_1" data-name="Layer 1"><circle class="cls-1" cx="18.76" cy="18.76" r="18.76"/><circle class="cls-2" cx="18.76" cy="18.76" r="15.15"/><circle class="cls-3" cx="18.76" cy="18.76" r="13.2"/><circle class="cls-3" cx="18.76" cy="18.76" r="11.57"/><path class="cls-2" d="M19.4,19.78v-.24a.65.65,0,0,0-1.28,0v.24a.65.65,0,0,0,1.28,0Zm.44.3h0a1.19,1.19,0,0,1-2.15,0H13.3a2.07,2.07,0,0,1-.77-.15v2.46a1,1,0,0,0,1,.87H24a1,1,0,0,0,1-.87V19.93a2.08,2.08,0,0,1-.77.15Zm4.35-4.42H21.7a1.9,1.9,0,0,0-1.94-1.4h-2a1.9,1.9,0,0,0-1.94,1.4H13.34a1,1,0,0,0-1.08.87v2a1,1,0,0,0,1,.87h4.34a.89.89,0,0,1,.34-.64h0l.14-.1.06,0,.13-.06.11,0,.1,0,.22,0,.22,0,.1,0,.11,0,.13.06.06,0,.14.1h0a.89.89,0,0,1,.34.64h4.34a1,1,0,0,0,1-.87v-2A1,1,0,0,0,24.19,15.66Zm-7.36,0a1,1,0,0,1,.95-.58h2a1,1,0,0,1,.95.58Z"/></g></g></svg>