<svg xmlns="http://www.w3.org/2000/svg" viewBox="0 0 16 15"><defs><style>.cls-1{fill:#90949c;}</style></defs><title>me0028</title><g id="레이어_2" data-name="레이어 2"><g id="Layer_1" data-name="Layer 1"><path class="cls-1" d="M15.51,13.07c-1.77,0-3-.4-3.61-1.2a2.77,2.77,0,0,1-.39-2.26.47.47,0,0,0-.08-.42A.5.5,0,0,0,11,9H9.65L10.8,6.66a.47.47,0,0,0,0-.2A4.57,4.57,0,0,1,12.23,3a4.91,4.91,0,0,1,3.23-1A.49.49,0,0,0,16,1.5.48.48,0,0,0,15.55,1a6.16,6.16,0,0,0-3,.64,7.91,7.91,0,0,0-9.86.23,7.34,7.34,0,0,0,.11,11.42,7.92,7.92,0,0,0,9.64.21,7.29,7.29,0,0,0,3.08.57.48.48,0,1,0,0-1ZM1,7.5A6.44,6.44,0,0,1,3,2.82,4.44,4.44,0,0,1,4.62,6.46a.47.47,0,0,0,0,.2L5.82,9H4.43a.5.5,0,0,0-.4.19A.47.47,0,0,0,4,9.61a2.6,2.6,0,0,1-.82,2.67A6.44,6.44,0,0,1,1,7.5ZM7.73,14a6.9,6.9,0,0,1-3.81-1.14A3.42,3.42,0,0,0,5,10H6.6A.5.5,0,0,0,7,9.73a.47.47,0,0,0,0-.46L5.6,6.34a5.35,5.35,0,0,0-1.8-4.15,6.9,6.9,0,0,1,7.86,0l-.09.07A5.42,5.42,0,0,0,9.86,6.34L8.42,9.27a.47.47,0,0,0,0,.46.5.5,0,0,0,.42.22h1.58a3.48,3.48,0,0,0,.65,2.48,3.22,3.22,0,0,0,.44.46A6.9,6.9,0,0,1,7.73,14Zm5.58-8.9a1.09,1.09,0,1,1-1.13,1.09A1.11,1.11,0,0,1,13.31,5.14ZM2.88,7.32a1.09,1.09,0,1,1,0-2.18,1.09,1.09,0,1,1,0,2.18Z"/></g></g></svg>