<svg xmlns="http://www.w3.org/2000/svg" viewBox="0 0 13.5 13.5"><defs><style>.cls-1{fill:#90949c;}</style></defs><title>me0020</title><g id="레이어_2" data-name="레이어 2"><g id="Layer_1" data-name="Layer 1"><path class="cls-1" d="M6.75,13.5A6.75,6.75,0,1,1,13.5,6.75,6.76,6.76,0,0,1,6.75,13.5Zm0-13A6.25,6.25,0,1,0,13,6.75,6.26,6.26,0,0,0,6.75.5Z"/><path class="cls-1" d="M6.67,9.89a.25.25,0,0,0-.27.24v.47a.27.27,0,0,0,.54,0v-.47A.25.25,0,0,0,6.67,9.89Zm0-6.64h0a2.3,2.3,0,0,0-1.51.55,1.78,1.78,0,0,0-.64,1.35.27.27,0,0,0,.54,0,1.33,1.33,0,0,1,.48-1,1.72,1.72,0,0,1,1.16-.41,1.56,1.56,0,0,1,1.6,1.4,1.38,1.38,0,0,1-.74,1.22A2.2,2.2,0,0,0,6.4,8.27v.67a.27.27,0,0,0,.54,0V8.27a1.76,1.76,0,0,1,.9-1.52,1.84,1.84,0,0,0,1-1.62A2.05,2.05,0,0,0,6.7,3.25Z"/></g></g></svg>