<svg xmlns="http://www.w3.org/2000/svg" viewBox="0 0 8 11"><defs><style>.cls-1{fill:#90949c;}</style></defs><title>me0026</title><g id="레이어_2" data-name="레이어 2"><g id="Layer_1" data-name="Layer 1"><path class="cls-1" d="M7.8,5.22A.61.61,0,0,0,7.33,5H7.11V3.5A3.59,3.59,0,0,0,6.19,1,2.85,2.85,0,0,0,1.81,1,3.59,3.59,0,0,0,.89,3.5V5H.67a.61.61,0,0,0-.47.22A.77.77,0,0,0,0,5.75v4.5a.77.77,0,0,0,.19.53A.61.61,0,0,0,.67,11H7.33a.61.61,0,0,0,.47-.22A.77.77,0,0,0,8,10.25V5.75A.77.77,0,0,0,7.8,5.22ZM5.78,5H2.22V3.5a2.05,2.05,0,0,1,.52-1.41,1.64,1.64,0,0,1,2.51,0A2.06,2.06,0,0,1,5.78,3.5Z"/></g></g></svg>