<svg xmlns="http://www.w3.org/2000/svg" viewBox="0 0 21 21"><defs><style>.cls-1{fill:#37bb37;fill-rule:evenodd;}.cls-2{fill:#fff;}</style></defs><title>me0017</title><g id="레이어_2" data-name="레이어 2"><g id="Layer_1" data-name="Layer 1"><path class="cls-1" d="M10.5,0A10.5,10.5,0,1,1,0,10.5,10.5,10.5,0,0,1,10.5,0Z"/><path class="cls-2" d="M11.14,10.52v-.24a.65.65,0,0,0-1.28,0v.24a.65.65,0,0,0,1.28,0Zm.44.3h0a1.19,1.19,0,0,1-2.15,0H5a2.07,2.07,0,0,1-.77-.15v2.46a1,1,0,0,0,1,.87H15.71a1,1,0,0,0,1-.87V10.67a2.08,2.08,0,0,1-.77.15ZM15.92,6.4H13.44A1.9,1.9,0,0,0,11.5,5h-2A1.9,1.9,0,0,0,7.56,6.4H5.08A1,1,0,0,0,4,7.27v2a1,1,0,0,0,1,.87H9.38a.89.89,0,0,1,.34-.64h0l.14-.1.06,0,.13-.06.11,0,.1,0,.22,0,.22,0,.1,0,.11,0,.13.06.06,0,.14.1h0a.89.89,0,0,1,.34.64H16a1,1,0,0,0,1-.87v-2A1,1,0,0,0,15.92,6.4Zm-7.36,0a1,1,0,0,1,.95-.58h2a1,1,0,0,1,.95.58Z"/></g></g></svg>