<svg xmlns="http://www.w3.org/2000/svg" viewBox="0 0 13.25 14.2"><defs><style>.cls-1{fill:#90949c;}</style></defs><title>me0019</title><g id="레이어_2" data-name="레이어 2"><g id="Layer_1" data-name="Layer 1"><path class="cls-1" d="M13.25,10.76l-.16-.08a2.86,2.86,0,0,1-1.75-2.15V5.2A4.69,4.69,0,0,0,7.59,1V.95a1,1,0,0,0-1.93,0V1a4.72,4.72,0,0,0-3.83,4.6c0,.14,0,2.66,0,2.88a2.8,2.8,0,0,1-1.7,2.18L0,10.76V13H4.63a2.07,2.07,0,0,0,2,1.17,2.07,2.07,0,0,0,2-1.17h4.63V10.76Zm-.58,1.69H.58V11.11A3.3,3.3,0,0,0,2.43,8.55v0s0-2.74,0-2.89A4.16,4.16,0,0,1,6.6,1.51a4.14,4.14,0,0,1,4.17,3.71V8.56a3.35,3.35,0,0,0,1.9,2.55v1.35Z"/></g></g></svg>