<svg xmlns="http://www.w3.org/2000/svg" width="14" height="14" viewBox="0 0 14 14">
  <metadata><?xpacket begin="﻿" id="W5M0MpCehiHzreSzNTczkc9d"?>
<x:xmpmeta xmlns:x="adobe:ns:meta/" x:xmptk="Adobe XMP Core 5.6-c138 79.159824, 2016/09/14-01:09:01        ">
   <rdf:RDF xmlns:rdf="http://www.w3.org/1999/02/22-rdf-syntax-ns#">
      <rdf:Description rdf:about=""/>
   </rdf:RDF>
</x:xmpmeta>
                                                                                                    
                                                                                                    
                                                                                                    
                                                                                                    
                                                                                                    
                                                                                                    
                                                                                                    
                                                                                                    
                                                                                                    
                                                                                                    
                                                                                                    
                                                                                                    
                                                                                                    
                                                                                                    
                                                                                                    
                                                                                                    
                                                                                                    
                                                                                                    
                                                                                                    
                                                                                                    
                           
<?xpacket end="w"?></metadata>
<defs>
    <style>
      .cls-1 {
        fill: #4f5e77;
        fill-rule: evenodd;
      }
    </style>
  </defs>
  <path id="Forma_1" data-name="Forma 1" class="cls-1" d="M1329.44,689.9a5.34,5.34,0,0,0,3.47-1.269l4.22,4.228a0.46,0.46,0,0,0,.35.145,0.509,0.509,0,0,0,.35-0.145,0.5,0.5,0,0,0,0-.7l-4.22-4.227A5.427,5.427,0,1,0,1329.44,689.9Zm0-9.906a4.458,4.458,0,1,1-4.45,4.458A4.45,4.45,0,0,1,1329.44,679.99Zm-0.5,7.683a0.5,0.5,0,1,0,.99,0v-2.73h2.72a0.5,0.5,0,1,0,0-.991h-2.72v-2.729a0.5,0.5,0,1,0-.99,0v2.729h-2.72a0.5,0.5,0,1,0,0,.991h2.72v2.73Z" transform="translate(-1324 -679)"/>
</svg>
