<svg xmlns="http://www.w3.org/2000/svg" viewBox="0 0 16.22 16.31"><defs><style>.cls-1{fill:#fff;fill-rule:evenodd;}.cls-2{fill:#dae9f8;}.cls-3{fill:#5d7599;}</style></defs><title>me0006</title><g id="레이어_2" data-name="레이어 2"><g id="Layer_1" data-name="Layer 1"><path class="cls-1" d="M8.11.25A7.91,7.91,0,1,1,.25,8.16,7.88,7.88,0,0,1,8.11.25Z"/><path class="cls-2" d="M8.11,16.31a8.16,8.16,0,1,1,8.11-8.16A8.14,8.14,0,0,1,8.11,16.31ZM8.11.5a7.66,7.66,0,1,0,7.61,7.66A7.64,7.64,0,0,0,8.11.5Z"/><path class="cls-3" d="M12,3.6a.22.22,0,0,0-.23,0L3.18,8.44a.2.2,0,0,0-.1.2.21.21,0,0,0,.15.17l2.18.58a.22.22,0,0,0,.19,0L9.08,6.63l-2.43,3a.2.2,0,0,0,0,.12v2.65a.2.2,0,0,0,.15.19h.06A.21.21,0,0,0,7,12.47L8.51,10.2l2.22.59a.22.22,0,0,0,.17,0,.2.2,0,0,0,.09-.14l1.08-6.83A.2.2,0,0,0,12,3.6Z"/></g></g></svg>