<svg xmlns="http://www.w3.org/2000/svg" viewBox="0 0 21 21"><defs><style>.cls-1{fill:#f84a0e;fill-rule:evenodd;}.cls-2{fill:#fff;}</style></defs><title>me0015</title><g id="레이어_2" data-name="레이어 2"><g id="Layer_1" data-name="Layer 1"><path class="cls-1" d="M10.5,0A10.5,10.5,0,1,1,0,10.5,10.5,10.5,0,0,1,10.5,0Z"/><path class="cls-2" d="M18.81,10.82l-4-3.89V3.64a.65.65,0,0,0-1.31,0v2L11,3.19a.67.67,0,0,0-.92,0L2.19,10.82a.62.62,0,0,0,0,.9.67.67,0,0,0,.92,0l1.5-1.46v6.1a.65.65,0,0,0,.65.64H15.73a.65.65,0,0,0,.65-.64v-6.1l1.5,1.46a.67.67,0,0,0,.92,0A.62.62,0,0,0,18.81,10.82Zm-8,2.61-.3.25-.3-.25c-1.12-1-1.85-1.51-1.85-2.41A1.15,1.15,0,0,1,9.53,9.87a1.31,1.31,0,0,1,1,.44,1.31,1.31,0,0,1,1-.44A1.15,1.15,0,0,1,12.65,11C12.65,11.82,11.92,12.47,10.8,13.44Z"/></g></g></svg>