<svg xmlns="http://www.w3.org/2000/svg" viewBox="0 0 37.53 37.53"><defs><style>.cls-1,.cls-2{fill:#fff;}.cls-1{opacity:0.31;}.cls-3{fill:#4b44e4;opacity:0.76;isolation:isolate;}</style></defs><title>me0041</title><g id="레이어_2" data-name="레이어 2"><g id="Layer_1" data-name="Layer 1"><circle class="cls-1" cx="18.76" cy="18.76" r="18.76"/><circle class="cls-2" cx="18.76" cy="18.76" r="15.15"/><circle class="cls-3" cx="18.76" cy="18.76" r="13.2"/><circle class="cls-3" cx="18.76" cy="18.76" r="11.57"/><path class="cls-2" d="M24.2,19.15l-4.47,2.69a2,2,0,0,1-1.93,0l-4.36-2.62S13,19,13,19.52v2.62C13,23.52,15.61,25,18.76,25s5.71-1.49,5.71-2.87V19.37C24.48,18.94,24.2,19.15,24.2,19.15ZM26,16.4l-6.64-3.26a1.3,1.3,0,0,0-1.22,0L11.51,16.4a.39.39,0,0,0,0,.73l6.64,4a1.3,1.3,0,0,0,1.22,0l6.64-4A.39.39,0,0,0,26,16.4Zm-.2,6.75a.11.11,0,0,1-.07-.1V18.64s0-.21-.12-.14a3.71,3.71,0,0,0-.44.27.36.36,0,0,0-.08.28v4a.12.12,0,0,1-.07.1.76.76,0,0,0-.38.66.78.78,0,0,0,1.55,0A.76.76,0,0,0,25.81,23.15Z"/></g></g></svg>