<svg xmlns="http://www.w3.org/2000/svg" viewBox="0 0 16.22 16.31"><defs><style>.cls-1{fill:#fff;fill-rule:evenodd;}.cls-2{fill:#dae9f8;}.cls-3{fill:#5d7599;}</style></defs><title>me0043</title><g id="레이어_2" data-name="레이어 2"><g id="Layer_1" data-name="Layer 1"><path class="cls-1" d="M8.11.25A7.91,7.91,0,1,1,.25,8.16,7.88,7.88,0,0,1,8.11.25Z"/><path class="cls-2" d="M8.11,16.31a8.16,8.16,0,1,1,8.11-8.16A8.14,8.14,0,0,1,8.11,16.31ZM8.11.5a7.66,7.66,0,1,0,7.61,7.66A7.64,7.64,0,0,0,8.11.5Z"/><path class="cls-3" d="M11.2,4.6V3.34h-.37V4.6H5.67V3.34H5.3V4.6H3.92V12h8.67V4.6ZM4.29,5h7.95V6.62H4.29Zm7.95,6.69H4.29V7h7.95Zm0,0"/><rect class="cls-3" x="5.48" y="8.2" width="0.77" height="0.38"/><rect class="cls-3" x="7.86" y="8.2" width="0.77" height="0.38"/><rect class="cls-3" x="10.24" y="8.2" width="0.77" height="0.38"/><rect class="cls-3" x="5.48" y="9.97" width="0.77" height="0.38"/><rect class="cls-3" x="7.86" y="9.97" width="0.77" height="0.38"/><rect class="cls-3" x="10.24" y="9.97" width="0.77" height="0.38"/></g></g></svg>