<svg xmlns="http://www.w3.org/2000/svg" viewBox="0 0 22 26"><defs><style>.cls-1{fill:#6e331e;}</style></defs><title>me0014</title><g id="레이어_2" data-name="레이어 2"><g id="Layer_1" data-name="Layer 1"><path class="cls-1" d="M20,0C18.88,0,18.2,1.21,18,1.21S17.24,0,16.12,0a2.1,2.1,0,0,0-2,2,2.43,2.43,0,0,0,.45,1.52c.56.86,3,2.92,3.52,2.92S21,4.4,21.55,3.54A2.43,2.43,0,0,0,22,2,2.1,2.1,0,0,0,20,0Zm-4.2,11.3c-.09,0-.29.07-.29-.27-.21-5-3.39-7.8-7.31-7.8-3.31,0-6.11,2.18-7,5.89A9.86,9.86,0,0,0,.92,11a.32.32,0,0,1-.24.33c-.59.15-.85,1.16-.58,2.24A2.37,2.37,0,0,0,1.26,15.2c0,.15.07.3.11.44a10,10,0,0,0,3.68,4.86,1.6,1.6,0,0,1,.1,1.14c-.21,1.29-1.2,2-3.32,2.89a.77.77,0,0,0-.41,1,.75.75,0,0,0,1,.41c2.93-1.24,4.14-2.72,4.27-4.46a2.35,2.35,0,0,0-.84-2.28,8.46,8.46,0,0,1-3-4,21.24,21.24,0,0,1-.35-4.9s0-.2.18-.2H7.83c.28,0,1.56-1.73,1.84-1.73s-.44,1.73-.16,1.73h.86c.28,0,1.56-1.73,1.82-1.73s-.45,1.73-.19,1.73h1.35a.19.19,0,0,1,.22.21s.26,3.52-.22,4.9a8.3,8.3,0,0,1-3,4,2.3,2.3,0,0,0-.78,2.21c.13,1.76,1.32,3.27,4.22,4.53A.75.75,0,0,0,14,26a.76.76,0,0,0,.7-.46.77.77,0,0,0-.4-1c-2.43-1.06-3.08-2.07-3.22-2.67a2.16,2.16,0,0,1,0-1.38,9.4,9.4,0,0,0,3.17-3.62A7.91,7.91,0,0,0,15,15.24c.53-.08,1.08-.76,1.32-1.7C16.61,12.46,16.35,11.46,15.76,11.3Z"/></g></g></svg>