<svg xmlns="http://www.w3.org/2000/svg" viewBox="0 0 15.72 15.81"><defs><style>.cls-1{fill:#f0ae68;fill-rule:evenodd;}.cls-2{fill:#fff;}.cls-3{fill:#f4d8bb;}.cls-4{fill:#6e331e;}</style></defs><title>me0007</title><g id="레이어_2" data-name="레이어 2"><g id="Layer_1" data-name="Layer 1"><path class="cls-1" d="M7.86,0A7.91,7.91,0,1,1,0,7.91,7.88,7.88,0,0,1,7.86,0Z"/><path class="cls-2" d="M11.5,5.9c-.82-1.73-2.17-3.32-3.75-3.32S4.78,4.22,4,6A27,27,0,0,0,11.5,5.9Z"/><path class="cls-2" d="M3.17,9.35A4.37,4.37,0,0,0,7.75,13a4.37,4.37,0,0,0,4.58-3.68A20.59,20.59,0,0,1,3.17,9.35Z"/><path class="cls-3" d="M11.5,5.9A27,27,0,0,1,4,6a8,8,0,0,0-.81,3.1c0,.09,0,.18,0,.27a20.59,20.59,0,0,0,9.17,0c0-.09,0-.18,0-.28A8.09,8.09,0,0,0,11.5,5.9Z"/><path class="cls-4" d="M5.6,7v.46H5.16V9.16H4.71V7.42H4.28V7Z"/><path class="cls-4" d="M6.65,7v2.2H6.21V7Z"/><path class="cls-4" d="M7.72,7v.45H7.26V7Zm0,.44v.45H7.26V7.4Zm0,.44v.45H7.26V7.84Zm0,.44v.45H7.26V8.27Zm0,.44v.45H7.26V8.71Zm0-1.31v0H7.27v0Zm.45,0v.45H7.7V7.4Zm.44.44v.45H8.14V7.84Zm-.44.45h0V7.85h0ZM9,7.4v.45H8.57V7.4ZM9.46,7v.45H9V7Zm0,.44v.45H9V7.4Zm0,.44v.45H9V7.84Zm0,.44v.45H9V8.27Zm0,.44v.45H9V8.71Z"/><path class="cls-4" d="M11.4,8.71v.46H10.08V7H11.4v.46h-.87v.41h.87v.46h-.87v.41Z"/></g></g></svg>