<svg xmlns="http://www.w3.org/2000/svg" viewBox="0 0 27.44 25"><defs><style>.cls-1{fill:#6e331e;}</style></defs><title>me0013</title><g id="레이어_2" data-name="레이어 2"><g id="Layer_1" data-name="Layer 1"><path class="cls-1" d="M13.72,0C6.15,0,0,5.61,0,12.5A11.82,11.82,0,0,0,2.78,20a4.57,4.57,0,0,1-1.64,2A1.1,1.1,0,0,0,.69,23.2a1,1,0,0,0,.87.83,9,9,0,0,0,1.31.09,7.78,7.78,0,0,0,3.77-.91A14.69,14.69,0,0,0,13.72,25c7.57,0,13.72-5.61,13.72-12.5S21.29,0,13.72,0Zm0,23.58A13.3,13.3,0,0,1,7,21.77a.66.66,0,0,0-.34-.09.69.69,0,0,0-.35.1,6.48,6.48,0,0,1-3.7.91,6.35,6.35,0,0,0,1.64-2.54.73.73,0,0,0-.14-.73A10.24,10.24,0,0,1,1.37,12.5c0-6.11,5.54-11.08,12.35-11.08s12.35,5,12.35,11.08S20.53,23.58,13.72,23.58Z"/><path class="cls-1" d="M8.1,9.73,8,10.44A2.48,2.48,0,0,1,9.9,9.62a2,2,0,0,1,1,.28,1.35,1.35,0,0,1,.58.74,2.62,2.62,0,0,1,2.1-1,1.68,1.68,0,0,1,1.4.64,2.28,2.28,0,0,1,.33,1.65l-.7,4.17H13.58l.69-4.18a2.21,2.21,0,0,0,0-.56q-.11-.8-1-.81a1.6,1.6,0,0,0-1.05.36,1.67,1.67,0,0,0-.61,1l-.72,4.21H9.79l.7-4.17a1.34,1.34,0,0,0-.2-1,1,1,0,0,0-.85-.36,1.74,1.74,0,0,0-1.58.9l-.8,4.63H6l1.1-6.34Z"/><path class="cls-1" d="M19,16.19a2.29,2.29,0,0,1-1.85-.87,3,3,0,0,1-.56-2.17l0-.25a4.22,4.22,0,0,1,.56-1.72A3.25,3.25,0,0,1,18.31,10a2.62,2.62,0,0,1,1.43-.38,2,2,0,0,1,1.54.65,2.67,2.67,0,0,1,.61,1.7,5,5,0,0,1,0,.76l-.06.49H17.66a2.14,2.14,0,0,0,.28,1.46,1.35,1.35,0,0,0,1.16.63,2.26,2.26,0,0,0,1.73-.84l.61.52a2.79,2.79,0,0,1-1,.9A2.91,2.91,0,0,1,19,16.19Zm.67-5.69a1.55,1.55,0,0,0-1.15.45,3.17,3.17,0,0,0-.78,1.38h3.08l0-.09A1.73,1.73,0,0,0,20.64,11,1.12,1.12,0,0,0,19.69,10.5Z"/></g></g></svg>