<svg xmlns="http://www.w3.org/2000/svg" viewBox="0 0 11.18 12.15"><defs><style>.cls-1{fill:#231815;}</style></defs><title>me0047</title><g id="레이어_2" data-name="레이어 2"><g id="Layer_1" data-name="Layer 1"><path class="cls-1" d="M6.22,1.15H4.68V3H6.22ZM5.85,2.69H5V1.51h.81Z"/><path class="cls-1" d="M7.32,8.93H3.47a.19.19,0,1,0,0,.38H7.32a.19.19,0,1,0,0-.38Z"/><path class="cls-1" d="M7.32,7.41H3.47a.19.19,0,1,0,0,.38H7.32a.19.19,0,1,0,0-.38Z"/><path class="cls-1" d="M1.73,10.64H9.06V5.7H1.73Zm.39-4.56H8.67v4.18H2.12Z"/><path class="cls-1" d="M8.94,0H.77A.77.77,0,0,0,0,.76V11.39a.77.77,0,0,0,.77.76h9.64a.77.77,0,0,0,.77-.76V2.22ZM7.12.39V3.8h-5V.39Zm3.67,11a.38.38,0,0,1-.39.38H.77a.38.38,0,0,1-.39-.38V.76A.38.38,0,0,1,.77.38h1v3.8H7.52V.38H8.77l2,2Z"/></g></g></svg>