<svg xmlns="http://www.w3.org/2000/svg" viewBox="0 0 15.72 15.81"><defs><style>.cls-1{fill:#00cacc;fill-rule:evenodd;}.cls-2{fill:#fff;}</style></defs><title>me0005</title><g id="레이어_2" data-name="레이어 2"><g id="Layer_1" data-name="Layer 1"><path class="cls-1" d="M7.86,0A7.91,7.91,0,1,1,0,7.91,7.88,7.88,0,0,1,7.86,0Z"/><path class="cls-2" d="M11.73,3.35a.22.22,0,0,0-.23,0L2.93,8.19a.2.2,0,0,0-.1.2A.21.21,0,0,0,3,8.55l2.18.58a.22.22,0,0,0,.19,0L8.83,6.38l-2.43,3a.2.2,0,0,0,0,.12v2.65a.2.2,0,0,0,.15.19h.06a.21.21,0,0,0,.18-.09L8.26,10l2.22.59a.22.22,0,0,0,.17,0,.2.2,0,0,0,.09-.14l1.08-6.83A.2.2,0,0,0,11.73,3.35Z"/></g></g></svg>