<svg xmlns="http://www.w3.org/2000/svg" viewBox="0 0 16.99 12"><defs><style>.cls-1{fill:#ffb9a1;}</style></defs><title>me0024</title><g id="레이어_2" data-name="레이어 2"><g id="Layer_1" data-name="Layer 1"><path class="cls-1" d="M17,5.87C16.94,5.81,14.12,0,8.5,0S.05,5.81,0,5.87A.23.23,0,0,0,0,6V6a.23.23,0,0,0,0,.1C.05,6.19,2.88,12,8.5,12S16.94,6.19,17,6.13A.23.23,0,0,0,17,6V6A.23.23,0,0,0,17,5.87ZM8.5,11.55C3.47,11.55.77,6.64.44,6,.77,5.35,3.47.45,8.5.45S16.22,5.36,16.55,6C16.22,6.64,13.53,11.55,8.5,11.55Zm0-8.39A2.82,2.82,0,0,0,5.74,6,2.82,2.82,0,0,0,8.5,8.9,2.82,2.82,0,0,0,11.26,6,2.82,2.82,0,0,0,8.5,3.16Zm0,5.29A2.38,2.38,0,0,1,6.17,6,2.38,2.38,0,0,1,8.5,3.61,2.38,2.38,0,0,1,10.83,6,2.38,2.38,0,0,1,8.5,8.45Zm0-3.38a1,1,0,1,0,.92,1A.94.94,0,0,0,8.5,5.07Z"/></g></g></svg>