<svg xmlns="http://www.w3.org/2000/svg" viewBox="0 0 15 15"><defs><style>.cls-1{fill:#90949c;}</style></defs><title>me0027</title><g id="레이어_2" data-name="레이어 2"><g id="Layer_1" data-name="Layer 1"><path class="cls-1" d="M7.5,0A7.5,7.5,0,1,0,15,7.5,7.51,7.51,0,0,0,7.5,0Zm0,14.06A6.56,6.56,0,1,1,14.06,7.5,6.57,6.57,0,0,1,7.5,14.06ZM4.81,6a1,1,0,1,0-1-1A1,1,0,0,0,4.81,6Zm5.38,0a1,1,0,1,0-1-1A1,1,0,0,0,10.19,6Zm2.12,2.55a.47.47,0,0,0-.58.31,4.29,4.29,0,0,1-4.23,2.8,4.26,4.26,0,0,1-4.23-2.8.47.47,0,0,0-.9.27A5.26,5.26,0,0,0,7.5,12.62a5.26,5.26,0,0,0,5.13-3.47A.47.47,0,0,0,12.31,8.57Z"/></g></g></svg>