<svg xmlns="http://www.w3.org/2000/svg" viewBox="0 0 36.13 36.13"><title>my0001</title><g id="레이어_2" data-name="레이어 2"><g id="Layer_1" data-name="Layer 1"><path d="M34.28,14.27l-2.53-.43a14.3,14.3,0,0,0-1-2.46l1.49-2.09A2.22,2.22,0,0,0,32,6.42L29.72,4.16a2.22,2.22,0,0,0-1.58-.66,2.19,2.19,0,0,0-1.29.42l-2.1,1.49a14.08,14.08,0,0,0-2.55-1l-.42-2.5A2.23,2.23,0,0,0,19.58,0H16.4a2.23,2.23,0,0,0-2.2,1.86l-.44,2.56a14,14,0,0,0-2.45,1L9.24,4a2.22,2.22,0,0,0-1.3-.42,2.2,2.2,0,0,0-1.58.66L4.1,6.47a2.24,2.24,0,0,0-.24,2.88l1.51,2.12a14,14,0,0,0-1,2.47l-2.5.42A2.23,2.23,0,0,0,0,16.55v3.18a2.23,2.23,0,0,0,1.86,2.2l2.56.44a14,14,0,0,0,1,2.45L4,26.89a2.23,2.23,0,0,0,.24,2.87L6.47,32a2.21,2.21,0,0,0,1.58.66,2.19,2.19,0,0,0,1.29-.42l2.12-1.51a14.14,14.14,0,0,0,2.38,1l.42,2.53a2.23,2.23,0,0,0,2.2,1.86h3.18a2.23,2.23,0,0,0,2.2-1.86l.43-2.53a14.3,14.3,0,0,0,2.46-1l2.09,1.49a2.22,2.22,0,0,0,1.3.42h0A2.21,2.21,0,0,0,29.71,32L32,29.71a2.23,2.23,0,0,0,.24-2.88l-1.49-2.1a14.27,14.27,0,0,0,1-2.46l2.53-.42a2.23,2.23,0,0,0,1.86-2.21V16.48A2.2,2.2,0,0,0,34.28,14.27Zm-.18,5.37a.19.19,0,0,1-.16.19l-3.16.53a1,1,0,0,0-.81.75,12,12,0,0,1-1.31,3.16,1,1,0,0,0,0,1.11L30.55,28a.21.21,0,0,1,0,.26l-2.26,2.26a.19.19,0,0,1-.14.06.19.19,0,0,1-.12,0L25.4,28.68a1,1,0,0,0-1.11,0,12.06,12.06,0,0,1-3.16,1.31,1,1,0,0,0-.75.81l-.53,3.16a.2.2,0,0,1-.2.16H16.49a.19.19,0,0,1-.19-.16l-.53-3.16a1,1,0,0,0-.75-.81,12.52,12.52,0,0,1-3.09-1.27,1,1,0,0,0-.51-.14,1,1,0,0,0-.59.19L8.19,30.61a.23.23,0,0,1-.11,0,.21.21,0,0,1-.14-.06L5.67,28.33a.2.2,0,0,1,0-.26l1.86-2.6a1,1,0,0,0,0-1.11A12,12,0,0,1,6.22,21.2a1,1,0,0,0-.81-.74l-3.19-.54a.2.2,0,0,1-.17-.2V16.55a.19.19,0,0,1,.17-.2l3.15-.53a1,1,0,0,0,.82-.75,12,12,0,0,1,1.29-3.16,1,1,0,0,0-.05-1.1L5.55,8.17a.21.21,0,0,1,0-.26L7.82,5.66A.19.19,0,0,1,8,5.6a.19.19,0,0,1,.11,0l2.6,1.86a1,1,0,0,0,1.11,0A12,12,0,0,1,15,6.21a1,1,0,0,0,.75-.81l.54-3.19a.2.2,0,0,1,.2-.17h3.18a.19.19,0,0,1,.2.17l.51,3.14a1,1,0,0,0,.75.82A12.24,12.24,0,0,1,24.32,7.5a1,1,0,0,0,1.11,0L28,5.58a.23.23,0,0,1,.11,0,.21.21,0,0,1,.14.06l2.26,2.26a.2.2,0,0,1,0,.26L28.7,10.74a1,1,0,0,0,0,1.11A12.06,12.06,0,0,1,30,15a1,1,0,0,0,.81.75l3.16.53a.2.2,0,0,1,.17.2v3.16h0Zm-16-9.38a7.79,7.79,0,1,0,7.8,7.8,7.79,7.79,0,0,0-7.8-7.8Zm0,13.54A5.76,5.76,0,1,1,23.83,18h0a5.76,5.76,0,0,1-5.75,5.77h0Z"/></g></g></svg>