<svg xmlns="http://www.w3.org/2000/svg" viewBox="0 0 25 25"><defs><style>.cls-1{fill:#9d700b;}</style></defs><title>tc0001</title><g id="레이어_2" data-name="레이어 2"><g id="Layer_1" data-name="Layer 1"><path class="cls-1" d="M19.59,2.21h0l-.55-.34L19,1.8l-.55-.31-.29-.15-.43-.2L17.44,1,16.76.75l-.14,0L16,.51l-.2-.06L15.13.28l-.07,0L14.28.13l-.17,0L13.49,0l-.21,0L12.5,0c-.28,0-.57,0-.85,0l-.22,0-.78.09h-.08L9.8.3,9.55.35,8.86.54,8.64.61,8,.83,7.76.94l-.68.3-.22.11-.52.28-.25.15-.62.4-.08.05-.23.16h0a12.5,12.5,0,1,0,14.43-.18Zm-13.3.42.41-.25.23-.13L7.51,2l.26-.12.44-.18.24-.1.64-.22.24-.07.5-.13.23-.05.7-.13.16,0,.6-.06.21,0,.76,0,.66,0h.19l.47,0,.21,0,.45.07.2,0,.47.1.17,0,.57.16.06,0,.6.2.23.09.34.14.29.13.26.13.19.1A8,8,0,0,0,14.18,5a1.1,1.1,0,0,0-.23.7,1.12,1.12,0,0,0-.42-.53A1.56,1.56,0,0,0,12,5.24h-.12c-.84.09-1.3.14-1.34,1.05a1.3,1.3,0,0,0,.63,1.16,1.17,1.17,0,0,0,.32.13.45.45,0,0,0,.06.12L11.7,8l.27,0a2.91,2.91,0,0,1,.55,0,1,1,0,0,0,.1.54.93.93,0,0,0,.56.48c.23.07.26.14.28.24a1.34,1.34,0,0,0,.83.93,1.25,1.25,0,0,0,1.16-.22c.21-.16.34-.13.8.1a3.7,3.7,0,0,0,1.18.39.25.25,0,0,1,.14.05,6.59,6.59,0,0,1,.85,1.23,3.79,3.79,0,0,0,1.37,1.6c.49.25-.06,1.69-.32,2.38l-.14.38a6.59,6.59,0,0,0-1.4,1.58A7.19,7.19,0,0,1,16.72,19a7,7,0,0,1-2.3,1.4.22.22,0,0,1-.25-.07.21.21,0,0,1,0-.24c.82-1.47,1.77-3.55.54-4.57a3.23,3.23,0,0,1-1.15-3.69,1.11,1.11,0,0,0-.56-1.4,1.56,1.56,0,0,1-.1-.46,2.61,2.61,0,0,0-.37-1.17,1.25,1.25,0,0,0-.44-.37A4.67,4.67,0,0,0,10.61,8,5,5,0,0,1,9.51,7.8C8.13,7.27,7.15,5,6.43,3.4l-.3-.67ZM12.5,24.17A11.66,11.66,0,0,1,5.44,3.22l.23.51C6.49,5.6,7.51,7.93,9.21,8.58a5.63,5.63,0,0,0,1.27.29,4,4,0,0,1,1.22.31l.11.09a1.9,1.9,0,0,1,.23.81,1.26,1.26,0,0,0,.52,1.07c.13.07.25.21.19.36a4,4,0,0,0,1.39,4.65c.38.32.57,1.18-.74,3.52a1,1,0,0,0,.12,1.19,1.05,1.05,0,0,0,.81.38,1.07,1.07,0,0,0,.36-.06A8,8,0,0,0,18.62,18a5.66,5.66,0,0,1,1.29-1.45.5.5,0,0,0,.18-.24c0-.13.1-.29.17-.46.43-1.12,1.08-2.82-.07-3.42a3.21,3.21,0,0,1-1-1.28,7.37,7.37,0,0,0-1-1.38,1.05,1.05,0,0,0-.64-.3,2.91,2.91,0,0,1-.92-.32,1.44,1.44,0,0,0-1.67,0,.44.44,0,0,1-.39.1.52.52,0,0,1-.3-.37,1.11,1.11,0,0,0-.84-.8A.1.1,0,0,1,13.37,8a.17.17,0,0,1,0-.14.59.59,0,0,0-.09-.6A1,1,0,0,0,12.49,7a.41.41,0,0,0-.11-.2l-.25-.23-.28.17a.23.23,0,0,1-.25,0,.47.47,0,0,1-.23-.4,1.48,1.48,0,0,1,0-.18A4.87,4.87,0,0,1,12,6.08l.25,0,.06,0c.37-.17.67-.23.8-.14s.22.2.2.87v.37l.37.05a1.09,1.09,0,0,0,1-.27,1.18,1.18,0,0,0,.12-1.15.27.27,0,0,1,0-.23,7.36,7.36,0,0,1,4-2.83A11.66,11.66,0,0,1,12.5,24.17Z"/></g></g></svg>