<svg xmlns="http://www.w3.org/2000/svg" viewBox="0 0 15.79 15.79"><defs><style>.cls-1{fill:#896a46;}.cls-2{fill:none;}</style></defs><title>tc0012</title><g id="레이어_2" data-name="레이어 2"><g id="Layer_1" data-name="Layer 1"><path class="cls-1" d="M8.9,1.38h0a.81.81,0,0,0-1.1,0L1.85,6.92v7.25h13V6.92ZM6.19,10.54l-3.91,3V7.46l3.91,3a.21.21,0,0,0,0,.05A.21.21,0,0,0,6.19,10.54Zm.5.17H10l4,3H2.71Zm3.75-.22,4-3v6.06ZM8.09,1.7a.38.38,0,0,1,.51,0h0L14.3,7h0L10,10.27H6.69L2.42,7h0Z"/><rect class="cls-2" width="15.79" height="15.79"/></g></g></svg>