<svg xmlns="http://www.w3.org/2000/svg" viewBox="0 0 16 11"><defs><style>.cls-1{fill:#020202;}</style></defs><title>tc0005</title><g id="레이어_2" data-name="레이어 2"><g id="Layer_1" data-name="Layer 1"><path class="cls-1" d="M2,5.82a7.64,7.64,0,0,0-2,4.81A.37.37,0,0,0,.3,11H.4a.41.41,0,0,0,.35-.19c2-3.35,5.88-3.53,8.39-3.54V9.7a.37.37,0,0,0,.23.34.43.43,0,0,0,.43,0l6.06-4.67A.36.36,0,0,0,16,5a.35.35,0,0,0-.15-.29L9.8.09a.42.42,0,0,0-.43,0,.37.37,0,0,0-.23.34V2.81A9.57,9.57,0,0,0,2,5.82ZM9.55,3.54a.39.39,0,0,0,.4-.38v-2L15,5l-5,3.88v-2a.37.37,0,0,0-.12-.27.42.42,0,0,0-.28-.11c-2.33,0-6,0-8.53,2.64C1.64,6.87,3.79,3.6,9.55,3.54Z"/></g></g></svg>