<svg xmlns="http://www.w3.org/2000/svg" viewBox="0 0 12 10.99"><defs><style>.cls-1{fill:#020202;}</style></defs><title>tc0004</title><g id="레이어_2" data-name="레이어 2"><g id="Layer_1" data-name="Layer 1"><path class="cls-1" d="M11.93,3.51a.17.17,0,0,0-.24,0L10.75,5A5.44,5.44,0,0,0,5.39,0,5.45,5.45,0,0,0,0,5.5,5.45,5.45,0,0,0,5.39,11,5.36,5.36,0,0,0,9.86,8.57a.18.18,0,0,0,0-.24.17.17,0,0,0-.24,0,5,5,0,0,1-4.19,2.27,5.11,5.11,0,0,1-5-5.15,5.11,5.11,0,0,1,5-5.15,5.08,5.08,0,0,1,5,4.8l-1.5-1a.17.17,0,0,0-.24,0,.18.18,0,0,0,0,.24l1.8,1.25a.17.17,0,0,0,.1,0h0l0,0,.05,0h0L12,3.75A.18.18,0,0,0,11.93,3.51ZM5.22,2.17V5.43l-1.59,2a.18.18,0,0,0,0,.24.17.17,0,0,0,.24,0l1.63-2a.18.18,0,0,0,0-.11V2.17a.17.17,0,1,0-.34,0Z"/></g></g></svg>