<svg xmlns="http://www.w3.org/2000/svg" viewBox="0 0 25 25"><defs><style>.cls-1{fill:#9d700b;}</style></defs><title>tc0002</title><g id="레이어_2" data-name="레이어 2"><g id="Layer_1" data-name="Layer 1"><path class="cls-1" d="M12.5.75A11.75,11.75,0,1,1,.75,12.5,11.76,11.76,0,0,1,12.5.75m0-.75A12.5,12.5,0,1,0,25,12.5,12.5,12.5,0,0,0,12.5,0Z"/><path class="cls-1" d="M20.18,12.18H13V5a.32.32,0,1,0-.65,0v7.13H5.27a.32.32,0,0,0,0,.65H12.4V20A.32.32,0,1,0,13,20V12.82h7.13a.32.32,0,1,0,0-.65Z"/></g></g></svg>