<svg xmlns="http://www.w3.org/2000/svg" viewBox="0 0 12 14"><defs><style>.cls-1{fill:#5f5f5f;}.cls-2{fill:#fff;}</style></defs><title>tc0010</title><g id="레이어_2" data-name="레이어 2"><g id="Layer_1" data-name="Layer 1"><path class="cls-1" d="M6.3,0H5.76a3.33,3.33,0,0,0-3.3,3.34V7H3V3.34A2.77,2.77,0,0,1,5.76.56H6.3A2.73,2.73,0,0,1,9,3.34V7h.55V3.34A3.28,3.28,0,0,0,6.3,0Z"/><rect class="cls-2" x="7.5" y="5.5" width="3" height="2"/><path class="cls-1" d="M11.76,7H.3a.29.29,0,0,0-.3.26V13.7a.32.32,0,0,0,.3.3H11.76a.27.27,0,0,0,.24-.3V7.26A.24.24,0,0,0,11.76,7Z"/><path class="cls-2" d="M6,8.66A1.12,1.12,0,1,0,7.12,9.78,1.11,1.11,0,0,0,6,8.66Zm0,1.68c-.3,0,.55-.25.55-.56S5.73,9.22,6,9.22a.56.56,0,0,1,0,1.12Z"/></g></g></svg>