<svg xmlns="http://www.w3.org/2000/svg" viewBox="0 0 13 12"><defs><style>.cls-1{fill:#020202;}</style></defs><title>tc0003</title><g id="레이어_2" data-name="레이어 2"><g id="Layer_1" data-name="Layer 1"><path class="cls-1" d="M5.94,8.33a.58.58,0,0,0-.05-.22l-.15-.34L2.48,5.27a1.91,1.91,0,0,0-.36.87l-.28,2L.08,11.1a.59.59,0,0,0,.22.81.62.62,0,0,0,.83-.22L2.95,8.65A.59.59,0,0,0,3,8.43l.29-2.1.58.32.82,1.83.1,2.94a.59.59,0,0,0,.22.44.72.72,0,0,1,.25-.69L6,10.57Zm.87-6.07A1.14,1.14,0,0,0,8,1.13a1.16,1.16,0,0,0-2.31,0A1.14,1.14,0,0,0,6.81,2.26ZM6.69,8.51,6.09,8l0,.08A.51.51,0,0,0,6.69,8.51ZM.4,3.13l.42-.4L.68,2.61a.3.3,0,0,0-.41,0,.28.28,0,0,0,0,.4ZM.86,4a.53.53,0,0,0,.74.05L3,2.91l1.92.52-1.33,0L3.2,4,5.35,5.67l.16-.4.14.63,1.19.92c-.36-1.53-.24-1-.55-2.29l.46-.79a.75.75,0,0,0-.29-1L5.25,2a.79.79,0,0,0-.82,0l.66.36L3,1.85A.53.53,0,0,0,2.49,2L.91,3.29A.5.5,0,0,0,.86,4Zm12.06,7.47L10.57,8.81a1.1,1.1,0,0,0-1.52-.12l-.24.19L2.46,4,2,4.37,8.36,9.25,5.59,11.51a.27.27,0,0,0,.17.47h6.93A.3.3,0,0,0,12.92,11.49Z"/></g></g></svg>