<svg xmlns="http://www.w3.org/2000/svg" viewBox="0 0 25.1 25.1"><defs><style>.cls-1{fill:#99744f;}.cls-2{fill:none;}</style></defs><title>tc0016</title><g id="레이어_2" data-name="레이어 2"><g id="Layer_1" data-name="Layer 1"><g id="레이어_2-2" data-name="레이어 2"><g id="Layer_1-2" data-name="Layer 1"><path class="cls-1" d="M1.94,9.74h4v1h-4v1h3v1h1v1h-1v1h-4v-1h4v-1h-3v-1h-1v-1h1Z"/><path class="cls-1" d="M11.94,9.74v1h-2v4h-1v-4h-2v-1Z"/><path class="cls-1" d="M17.94,10.74h-4v1h3v1h-3v1h4v1h-5v-5h5Z"/><path class="cls-1" d="M22.94,10.74h1v1h-1v1h-3v2h-1v-5h4Zm-3,1h3v-1h-3Z"/></g></g><rect class="cls-2" width="25.1" height="25.1"/></g></g></svg>