<svg xmlns="http://www.w3.org/2000/svg" viewBox="0 0 12.02 11"><title>tc0017</title><g id="레이어_2" data-name="레이어 2"><g id="Layer_1" data-name="Layer 1"><path d="M12,10.15l-.48-1.73a.26.26,0,0,0-.06-.09A2.83,2.83,0,0,0,9.52,6.42l-.14,0a.55.55,0,0,0-.58.19A2.1,2.1,0,0,1,7,7.22a2.1,2.1,0,0,1-1.8-.64.55.55,0,0,0-.58-.19l-.14,0A2.83,2.83,0,0,0,2.83,7.7H1.38s0,0,0,0l.3-1.1c.26-.86.76-1.12,1.74-1.39a.22.22,0,0,0,.1-.06,1.28,1.28,0,0,0,.26.18.16.16,0,0,0,.1,0,.24.24,0,0,0,.2-.13A.24.24,0,0,0,4,4.84a2.24,2.24,0,0,1-.9-1.92A1.32,1.32,0,0,1,4.35,1.59a1.39,1.39,0,0,1,.39.06,2.81,2.81,0,0,0-.19,1c0,2,1.17,3.73,2.55,3.73S9.66,4.67,9.66,2.68A2.62,2.62,0,0,0,7.1,0,2.53,2.53,0,0,0,5,1.22a1.74,1.74,0,0,0-.6-.11A1.72,1.72,0,0,0,2.89,2l-.07,0a1,1,0,0,0-.53-.13A1.15,1.15,0,0,0,1.14,3,2.11,2.11,0,0,0,1.4,4,1.48,1.48,0,0,0,.2,5.07L0,5.75a.41.41,0,0,0,.06.34.38.38,0,0,0,.32.17h.87s0,.09,0,.14L.92,7.52A.5.5,0,0,0,1,8a.46.46,0,0,0,.39.2H2.6a2.1,2.1,0,0,0-.08.25L2,10.16a.7.7,0,0,0,.11.58.63.63,0,0,0,.5.26h8.73a.61.61,0,0,0,.5-.26A.68.68,0,0,0,12,10.15ZM5.22,1.68l0,0s0,0,0,0A2.06,2.06,0,0,1,7.1.47,2.13,2.13,0,0,1,9.1,2,1,1,0,0,1,8,1.57a.22.22,0,0,0-.32,0,.2.2,0,0,0-.08.12l0,0c-.32.67-1.38,1-2.6.71A2.55,2.55,0,0,1,5.22,1.68Zm.64,1.27a2.4,2.4,0,0,0,2-.85,1.48,1.48,0,0,0,1,.4,1.16,1.16,0,0,0,.28,0,1.2,1.2,0,0,1,0,.2c0,1.74-1,3.27-2.11,3.27S5.08,4.52,5,2.87A4.43,4.43,0,0,0,5.86,2.95ZM.48,5.79.64,5.2c.14-.49.42-.63,1-.77a.22.22,0,0,0,.09,0,.89.89,0,0,0,.17.12.16.16,0,0,0,.1,0,.24.24,0,0,0,.2-.13.25.25,0,0,0-.09-.32A1.3,1.3,0,0,1,1.59,3a.7.7,0,0,1,.69-.72.62.62,0,0,1,.33.08l.09,0a1.86,1.86,0,0,0-.09.57,3.11,3.11,0,0,0,.56,1.8A2.49,2.49,0,0,0,1.49,5.79Zm11.05,4.67a.2.2,0,0,1-.15.07H2.66a.2.2,0,0,1-.15-.07.22.22,0,0,1,0-.17L3,8.56A2.37,2.37,0,0,1,4.6,6.89l.14,0a.14.14,0,0,1,.12,0A2.49,2.49,0,0,0,7,7.71a2.49,2.49,0,0,0,2.14-.8.14.14,0,0,1,.14,0l.14,0a2.39,2.39,0,0,1,1.65,1.67l.2.73a.19.19,0,0,0,0,.08l.25.9A.24.24,0,0,1,11.53,10.46Z"/></g></g></svg>