<svg xmlns="http://www.w3.org/2000/svg" viewBox="0 0 31.89 27.05"><defs><style>.cls-1{fill:#9d700b;}</style></defs><title>tc0015</title><g id="레이어_2" data-name="레이어 2"><g id="Layer_1" data-name="Layer 1"><path class="cls-1" d="M11.76,27C5.28,27,0,22.34,0,16.64A22.57,22.57,0,0,1,3.3,6.29C5.74,2.24,8.74,0,11.76,0s6,2.24,8.46,6.29a22.57,22.57,0,0,1,3.3,10.35C23.52,22.34,18.25,27,11.76,27Zm0-26C5.87,1,1,11.36,1,16.64S5.83,26,11.76,26s10.76-4.19,10.76-9.34S17.65,1,11.76,1Z"/><path class="cls-1" d="M16.9,23.88V27h3.16l9.16-9.25-3.16-3.17Zm14.74-8.5a.81.81,0,0,0,0-1.17l-1.91-1.92a.8.8,0,0,0-1.17,0l-1.5,1.5L30.22,17Z"/><path d="M7.24,13.32v.9H5.45v3.59h-.9V14.22H2.75v-.9Z"/><path d="M8.14,13.32H9v4.49h-.9Z"/><path d="M13.53,13.32h1.8v.88h.9v3.59h-.9V14.23h-1.8v3.58h-.9V14.23h-1.8v3.59h-.9V13.32h2.69v.88h.9Z"/><path d="M21.61,14.22H18v.9h2.69V16H18v.9h3.59v.9H17.12V13.32h4.49Z"/></g></g></svg>