<svg xmlns="http://www.w3.org/2000/svg" viewBox="0 0 15.8 17.48"><defs><style>.cls-1{fill:#896a46;}</style></defs><title>TC0014</title><g id="레이어_2" data-name="레이어 2"><g id="Layer_1" data-name="Layer 1"><path class="cls-1" d="M15.8,17.48h0ZM12,15.76a.48.48,0,0,1-.34-.14l-5-4.92L4,13.36a.48.48,0,0,1-.67,0l-3.14-3a.48.48,0,0,1,0-.69L3,6.83V.48A.48.48,0,0,1,3.46,0h6.74a.48.48,0,0,1,.48.48V6.65l5,4.9a.48.48,0,0,1,0,.68l-3.35,3.39A.48.48,0,0,1,12,15.76ZM3.73,6.11,6.5,3.48,3.73.85ZM10,.88,7.27,3.48,10,6.08ZM4.27.66,6.89,3.14,9.5.66Zm-.9,6.8L.8,10l2.78,2.78,2.57-2.57ZM6.89,3.92l-3.16,3L12,14.95l3.05-3.09Z"/></g></g></svg>