<svg xmlns="http://www.w3.org/2000/svg" viewBox="0 0 16 11.03"><defs><style>.cls-1{fill:#020202;}</style></defs><title>tc0006</title><g id="레이어_2" data-name="레이어 2"><g id="Layer_1" data-name="Layer 1"><path class="cls-1" d="M14,5.19A7.67,7.67,0,0,0,16,.37.38.38,0,0,0,15.7,0h-.1a.41.41,0,0,0-.35.19c-2,3.36-5.88,3.54-8.39,3.55V1.3A.37.37,0,0,0,6.63,1,.42.42,0,0,0,6.2,1L.14,5.7A.36.36,0,0,0,0,6a.35.35,0,0,0,.15.29L6.2,10.95a.42.42,0,0,0,.43,0,.37.37,0,0,0,.23-.34V8.21A9.56,9.56,0,0,0,14,5.19ZM6.45,7.48a.39.39,0,0,0-.4.38v2L1,6l5-3.89v2a.37.37,0,0,0,.12.27.42.42,0,0,0,.28.11c2.33,0,6,0,8.53-2.65C14.36,4.14,12.21,7.42,6.45,7.48Z"/></g></g></svg>