<svg xmlns="http://www.w3.org/2000/svg" viewBox="0 0 15.79 15.79"><defs><style>.cls-1{fill:#896a46;}.cls-2{fill:none;}</style></defs><title>tc0013</title><g id="레이어_2" data-name="레이어 2"><g id="Layer_1" data-name="Layer 1"><path class="cls-1" d="M13.4,4.25H2.11a.79.79,0,0,0-.87.66v6.59a.79.79,0,0,0,.87.66H13.4a.79.79,0,0,0,.87-.66V4.92A.78.78,0,0,0,13.4,4.25ZM1.78,5,6.11,8.34,1.78,11.47ZM8.13,8.74a.66.66,0,0,1-.74,0L2.16,4.67H13.35Zm-1.64-.1L7,9A1.32,1.32,0,0,0,8.51,9l.39-.3,4.42,3H2.18Zm2.79-.2L13.73,5v6.51Z"/><rect class="cls-2" width="15.79" height="15.79"/></g></g></svg>