<svg xmlns="http://www.w3.org/2000/svg" viewBox="0 0 33.56 33.75"><defs><style>.cls-1{fill:#0d634d;}</style></defs><title>ti0004</title><g id="레이어_2" data-name="레이어 2"><g id="Layer_1" data-name="Layer 1"><path class="cls-1" d="M16.78,33.75A16.88,16.88,0,1,1,33.56,16.88,16.85,16.85,0,0,1,16.78,33.75Zm0-33a16.13,16.13,0,1,0,16,16.13A16.1,16.1,0,0,0,16.78.75Z"/><path class="cls-1" d="M9.69,18c1.4-2,2.22-3.31,2.82-4.27C10.2,13.88,8,16.75,8,16.75l1.52,1.52A1.59,1.59,0,0,1,9.69,18Zm5.94,6.44,1.52,1.52S20,23.7,20.23,21.4c-1,.6-2.26,1.42-4.27,2.82A1.58,1.58,0,0,1,15.63,24.39Zm-2.31-.79c-.26.11-.52.22-.79.31a12.16,12.16,0,0,1-2.2.5c-.31,0-.63.08-.94.1V24.4a14.19,14.19,0,0,1,.37-2.26c.09-.36.21-.7.33-1.05s.17-.42.27-.63l-.17-.17a4.15,4.15,0,0,0-1,.92A6.07,6.07,0,0,0,8.3,23a7.33,7.33,0,0,0-.39,2.11,1.66,1.66,0,0,0,0,.3A.71.71,0,0,0,8.4,26a1,1,0,0,0,.31,0,7.06,7.06,0,0,0,1.93-.3,5.36,5.36,0,0,0,3-2l-.16-.16ZM26,7.92h0a.63.63,0,0,0-.45-.18h0c-2,0-7,.42-9.71,3.08A14.5,14.5,0,0,0,13.35,14c-.62,1-1.47,2.35-3,4.59a.63.63,0,0,0,.07.81l4.07,4.07a.63.63,0,0,0,.81.07c2.23-1.55,3.59-2.4,4.59-3a14.49,14.49,0,0,0,3.22-2.46c2.67-2.67,3-7.68,3.08-9.71A.63.63,0,0,0,26,7.92ZM21.27,15.6a2.1,2.1,0,1,1,0-3A2.1,2.1,0,0,1,21.27,15.6Z"/></g></g></svg>