<svg xmlns="http://www.w3.org/2000/svg" viewBox="0 0 33.56 33.75"><defs><style>.cls-1{fill:#be9459;}.cls-2{fill:#6e331e;}</style></defs><title>ti0003</title><g id="레이어_2" data-name="레이어 2"><g id="Layer_1" data-name="Layer 1"><path class="cls-1" d="M16.78,33.75A16.88,16.88,0,1,1,33.56,16.88,16.85,16.85,0,0,1,16.78,33.75Zm0-33a16.13,16.13,0,1,0,16,16.13A16.1,16.1,0,0,0,16.78.75Z"/><path class="cls-1" d="M25.08,12.35c-1.73-3.64-4.57-7-7.89-7s-6.25,3.43-8,7.14A56.78,56.78,0,0,0,25.08,12.35Z"/><path class="cls-1" d="M7.55,19.61c.34,4.33,4.53,7.77,9.65,7.77s9.29-3.42,9.65-7.74A43.34,43.34,0,0,1,7.55,19.61Z"/><path class="cls-2" d="M12.46,15.05H11v3.81h-.59V15.05H9V14.6h3.47Z"/><path class="cls-2" d="M14.35,18.87h-.6V14.6h.6Z"/><path class="cls-2" d="M18.23,18.07h0l1.4-3.47h.74v4.27H19.8v-3.2h0l-1.33,3.2H18l-1.37-3.3h0v3.3h-.59V14.6h.78Z"/><path class="cls-2" d="M24.43,16.89h-1.8v1.53h2.11v.45H22V14.6h2.67v.45H22.63v1.38h1.8Z"/></g></g></svg>